<?xml version="1.0" encoding="utf-8"?>
<!-- Generator: Adobe Illustrator 16.0.4, SVG Export Plug-In . SVG Version: 6.00 Build 0)  -->
<!DOCTYPE svg PUBLIC "-//W3C//DTD SVG 1.1//EN" "http://www.w3.org/Graphics/SVG/1.1/DTD/svg11.dtd">
<svg version="1.1" id="Layer_1" xmlns="http://www.w3.org/2000/svg" xmlns:xlink="http://www.w3.org/1999/xlink" x="0px" y="0px"
	 width="652.234px" height="140.8px" viewBox="0 0 652.234 140.8" enable-background="new 0 0 652.234 140.8" xml:space="preserve">
<path d="M42.9,70.1H12.4v-0.8l8.5-4V15.5h-0.1c0,0-2.5,0-4.8,0.6c-1.101,0.4-2.4,0.8-4.101,2.4C10.2,20.1,1.1,29.4,1.1,29.4l-1-0.4
	l1.4-16.2h19.7l0,0h31.5L54.4,29l-1,0.4c0,0-9.1-9.3-10.8-10.9c-1.7-1.6-3-2-4.1-2.4c-2.3-0.6-4.3-0.5-4.3-0.5l0,0v49.6l8.6,4
	L42.9,70.1z"/>
<path d="M437.4,70.1h-30.5v-0.8l8.5-4V15.5H415.3c0,0-2.5,0-4.8,0.6c-1.101,0.4-2.4,0.8-4.101,2.4
	c-1.701,1.6-10.803,10.9-10.803,10.9l-1-0.4l1.303-16.2h19.698l0,0h31.5l1.7,16.2l-1,0.4c0,0-9.101-9.3-10.8-10.9
	c-1.7-1.6-3-2-4.102-2.4c-2.302-0.6-4.302-0.5-4.302-0.5l0,0v49.6l8.603,4L437.4,70.1z"/>
<polygon points="115.9,17.7 122.8,13.7 122.8,12.9 95.7,12.9 95.7,13.7 102.7,17.6 102.7,38.9 76.6,39.1 76.6,17.7 83.6,13.7 
	83.6,12.9 56.4,12.9 56.4,13.7 63.5,17.7 63.5,65.3 56.4,69.3 56.4,70.1 83.6,70.1 83.6,69.2 76.6,65.2 76.6,42.3 102.7,42.5 
	102.7,65.3 95.7,69.3 95.7,70.1 122.8,70.1 122.8,69.2 115.9,65.2 "/>
<polygon points="457.9,65.3 450.9,69.3 450.9,70 478,70 478,69.2 471,65.2 471,17.7 478,13.7 478,12.9 450.9,12.9 450.9,13.6 
	457.9,17.6 "/>
<g>
	<path fill="#FFFFFF" d="M237.5,19c0,0-1.5,1-2,1.2c-0.3,0.2-2.5,1.2-2.5,1.2l0.1,0.7c0,0,1.101,0.3,1.7,0.4c0.7,0.1,1.8,0,1.8,0
		s0.101-0.7,0.7-1.4c0.7-0.6,1-1.1,1-1.1L237.5,19z"/>
	<path d="M241.1,30.1c0.2-0.3,1.5-2.8,0.5-4.3c-1.1-1.5-3.1-3.8-3.1-3.8l-0.2,0.2c0,0,0.8,1,1.2,1.6c0.399,0.6,1.7,2,1.6,3.7
		c0,1.6-0.8,2.8-1.1,3.1C239.7,30.9,240.9,30.4,241.1,30.1z"/>
	<path d="M235.7,27.9c-0.301,0.2-0.5,1.2,0.3,0.7C236.8,28,235.9,27.7,235.7,27.9z"/>
	<path d="M235.1,26.6c-0.399,0-0.6,0.5-0.2,0.9C235.3,27.8,235.4,26.6,235.1,26.6z"/>
	<path d="M236.2,26.3c-0.301,0.6,0.1,1.2,0.8,0.6S236.4,25.9,236.2,26.3z"/>
	<path fill="#FFFFFF" d="M235.8,23.6c0,0.1-0.7-0.5-1.7-0.6s-1.7-0.4-1.7-0.4l0.2-1.9c0,0,0.5-0.2,0.9-0.2
		c0.3,0,0.899-0.3,0.899-0.3l-0.199-0.6c0,0-0.5,0-1.101,0.3c-0.5,0.2-1.5,0.3-1.5,0.3l-0.1,3.2c0,0,1.5,0.1,2.2,0.2
		c0.8,0.1,1.899,0.5,1.899,0.5L235.8,23.6z"/>
	<path d="M236.9,24.2c0.5,0,0.7-1,0.101-0.9C236,23.3,236.3,24.2,236.9,24.2z"/>
	<path d="M236.6,25.2c-0.1,0.5,0.7,0.4,0.9,0C237.6,24.8,236.7,24.6,236.6,25.2z"/>
	<path d="M236,25.3c-0.4,0-0.5,0.5-0.101,0.5c0.269,0,0.358-0.236,0.167-0.429C236.013,25.362,235.961,25.339,236,25.3z"/>
	<path d="M236,25.3c0.033,0.022,0.043,0.047,0.066,0.071C236.152,25.384,236.245,25.361,236,25.3z"/>
	<path d="M263.7,56.7c0.1-0.2,0.399-1.1,0.399-1.4c0-0.4-0.399,0.1-0.5,0.4c-0.2,0.3-0.5,0.3-0.5,0.3s0.4-0.7,0.5-1.2
		c0.101-0.4-0.3-0.6-0.399-0.4c-0.101,0.3-0.4,0.5-0.601,0.6c-0.201,0.1,0.101-0.6,0.2-0.8c0.1-0.3,0.1-0.6,0.1-0.6
		s-1.1-0.5-1.6-0.6c-0.6-0.2-1.1-0.6-1.5-0.6c-0.4,0,0.1,0.5,0.2,0.8c0.1,0.3,1.5,2.6,1.5,2.9c0,0.3-0.2,1.4-0.4,1.8
		c-0.208,0.208-0.501,0.221-0.669,0.211c0.229,0.123,0.544,0.243,0.869,0.188c0.6-0.1,1.7-0.4,2-0.9
		c0.101-0.168,0.248-0.264,0.396-0.324C263.653,56.962,263.647,56.806,263.7,56.7z"/>
	<path d="M207.065,63.571c-0.016,0.16-0.015,0.331,0.035,0.529c0.021,0.084,0.056,0.138,0.085,0.203
		c0.004-0.001,0.011-0.002,0.016-0.003C207.731,64.211,207.478,63.577,207.065,63.571z"/>
	<path d="M363.9,21.5c-0.303,0.1-2.603,2.1-3,2.4c-0.399,0.3-3.7,0.7-4.303,0.7c-0.601,0-2.101,0.3-2.101,0.3l0.5,1.4
		c0,0,0.601-0.1,1-0.1s1.301,0.4,2.101,0.7c0.803,0.3,2.603,1.5,3.2,1.7c0.603,0.2,2.103,0.2,2.603-0.3s2.197-1.3,2.5-1.5
		c0.3-0.2,2.197-0.1,2.197-0.1l-0.101-0.6c0,0-0.899-0.3-1.399-0.4c-0.5-0.1-1.8-0.1-1.8-0.1s-0.2,0.2-0.5,0.8s-1.2,1.1-2.101,1.2
		c-0.899,0.1-1.399-0.6-2-0.9c-0.603-0.3-1.899-0.7-2.2-0.7c-0.3-0.1-0.399-0.2,0.2-0.4c0.5-0.1,3.199-0.4,3.8-0.6
		s2.301-2.2,2.601-2.5c0.399-0.2,2.803,0,2.803,0l-0.5-1.3c0,0-1.303,0.1-1.7,0.1C365.301,21.3,364.3,21.5,363.9,21.5z"/>
	<path d="M263.9,57.2c0.059-0.029,0.125-0.106,0.197-0.206c-0.113,0.004-0.256,0.025-0.4,0.082
		C263.736,57.179,263.806,57.247,263.9,57.2z"/>
	<path d="M359.9,16.6c0,0.9-1.303,0.9-2.103,0.8c-0.801-0.2-1.301-0.1-2,0.3c-0.7,0.3-3,2.8-3,2.8l0.5,1c0,0,2.3-1.2,3.103-1.2
		c0.397,0,3.397,0.1,4.397,0.1c0.699,0,0.8-0.2,0.899-1.1c0.101-1,1.199-1.8,1.897-1.8c0.7,0,1.802,0.2,1.802,0.2
		s-0.602-0.9-1.302-1c-0.698-0.1-1.397,0.2-2.101,0.4c-0.699,0.3-1.199,1.9-1.699,2.2c-0.5,0.3-2,0.1-2.801,0.1
		c-0.8,0-2.899,0.8-2.899,0.8s1.302-1.2,2.103-1.7c0.8-0.5,2.101-0.3,3-0.6c0.897-0.3,0.699-2.2,0.699-2.8s2.198-1.3,2.198-1.3
		l-0.198-0.3l-2.199,0.7C359.6,14.5,359.9,15.7,359.9,16.6z"/>
	<path d="M196.8,67.1l4.4-1.6c0,0-6.4-2.5-8-3.3c-1.601-0.8-6.4-3.7-6.4-3.7l1.3,4.3c0,0,2.3,1.3,3.3,1.8
		C194.1,65.9,191.2,64.5,196.8,67.1z"/>
	<path d="M355,39.7c0,0-0.5,1-0.101,1.4c0.601,0.6,3.197,0.6,3.197,0.6s-1.8-1.1-2.197-1.3C355.5,40.2,355,39.7,355,39.7z"/>
	<path d="M365.9,27.9c-0.303,0.2-1,0.9-1.303,1.1c-0.197,0.2-1.3,0.4-1.601,0.9c-0.3,0.5-1.199,0.4-1.899,0.2
		c-0.697-0.2-1.3-0.3-2.101-0.3c-0.8,0-2.699,0.4-3,0.5l0.2,2c0,0,1.5,0.5,1.897,0.8c0.399,0.3,0.802,0.4,1.302,0.6
		c0.5,0.2,2.398,0.2,2.698,0.5c0.302,0.2,0.802,0.7,1.302,0.7s3.101,0,3.898,0.1s1.5,0.1,1.5,0.1v-0.5c0,0-1.398-0.6-1.801-0.6
		c-0.4,0-1.899-0.1-2.3,0c-0.399,0.1-1.3,0.1-1.3,0.1s1.3-0.8,1.5-1.1c0.197-0.3,0.5-0.8,1.197-0.9c0.7-0.1,1.803-0.1,2.2-0.1
		c0.399,0,1.5,0.3,1.5,0.3s0-0.9-0.301-1.1c0.101,0.2-1.8-0.1-2.399-0.1c-0.697,0-1.8,0.6-2.197,0.9c-0.399,0.3-1.899,1.5-1.899,1.5
		s-0.801-0.2-1.101-0.3c-0.303-0.1-1.899-0.3-2.303-0.4c-0.397-0.1-1.897-0.7-2.101-0.8c-0.2-0.1-0.3-0.7,0-0.7
		c0.301,0,1.101,0,1.801,0c0.699,0,1.603,0.1,2.399,0.2s1.698,0.1,2.101-0.2c0.399-0.3,2.603-2.8,2.899-2.9c0.3-0.2,2.8-0.2,2.8-0.2
		s0-0.9-0.199-0.9c-0.2,0-1.801,0.1-2.2,0.1C366.699,27.4,366.199,27.8,365.9,27.9z"/>
	<path d="M356.6,37.4c0.5-0.2,2.303-0.1,2.7-0.1c0.399,0,1.7,0.6,2,0.5c0.3-0.1,3-1.2,3.603-1.4c0.601-0.2,1.5,0,2.197,0
		c0.7,0,1.9,0,1.9,0v-1c-0.101,0.1-1.7,0.3-2.101,0.3c-0.399,0-1.5,0.1-1.899,0.2c-0.4,0.1-2.101,0.4-2.601,0.6
		s-0.603-0.1-1.303-0.4c-0.601-0.3-1.897-0.4-2.8-0.6c-0.8-0.2-2.3,0-2.3,0s-0.2,1.2-0.4,1.9c-0.197,0.7-0.397,1.4-0.397,1.4
		s0.301,0.2,0.601,0.3s1.399,0.7,1.7,0.8c0.399,0.1,1.6,0.6,2.1,0.8c0.5,0.1,0.9,0.4,1.303,0.3c0.397-0.1,2.3-1,2.8-1.3
		c0.5-0.3,2.5-0.2,2.5-0.2v-1c0,0-1.399-0.3-1.699-0.3c-0.301,0-0.801,0.5-1.101,0.8c-0.399,0.3-1.803,0.6-2.103,0.9
		c-0.3,0.3-0.601,0.2-1.3,0.2c-0.7,0-1.2-0.4-1.7-0.8c-0.5-0.4-1.3-0.8-1.7-0.9c-0.397-0.2-0.8-0.2-0.697-0.5
		C356,37.6,356.1,37.7,356.6,37.4z"/>
	<path d="M361.6,21.7c-0.397,0.2-3.6-0.4-3.6-0.4l-0.101,0.5c0,0,2.101,0.2,2.697,0.2c0.603,0,1,0,1.399-0.1
		c0.398-0.1,2-0.9,2.301-1.2c0.3-0.3,2.602-0.2,2.602-0.2l-0.301-0.5c0,0-1.5,0-2.1,0.1C363.9,20.2,362,21.5,361.6,21.7z"/>
	<path d="M195.811,61.182c0.031,0.015,0.067,0.022,0.109,0.022c-0.015-0.058-0.021-0.104-0.021-0.104S195.866,61.134,195.811,61.182
		z"/>
	<path d="M196.8,60.7c0,0-0.4,0.4-0.8,0.5c-0.03,0.008-0.056,0.004-0.081,0.004c0.029,0.118,0.11,0.295,0.381,0.295
		c0.284,0,0.511-0.148,0.623-0.236C196.659,61.169,196.8,60.7,196.8,60.7z"/>
	<path d="M196.923,61.264c0.028,0.01,0.039,0.036,0.077,0.036c0.012,0,0.027-0.011,0.041-0.013C197.016,61.238,197,61.2,197,61.2
		S196.969,61.228,196.923,61.264z"/>
	<path fill="#FFFFFF" d="M331.9,5.1c-0.02-0.026-0.049-0.046-0.074-0.067c0.032,0.038,0.062,0.082,0.104,0.141
		C331.919,5.149,331.906,5.12,331.9,5.1z"/>
	<path d="M260.3,58.1c0,0,0.057,0.007,0.131,0.011c-0.046-0.024-0.08-0.046-0.117-0.069C260.306,58.076,260.3,58.1,260.3,58.1z"/>
	<path d="M317.9,56.6c0.101,0.4,0.8,2.3,1,3c0.197,0.7-1.103,0.8-1.103,0.8l0.103,0.4l3-1.1l-0.103-0.3c0,0-0.801,0.3-1-0.3
		c-0.2-0.6-0.7-2.4-0.7-2.4l3,2.8l0.7-0.1l1.3-3.5c0,0,0.399,2,0.399,2.7c0,0.8-0.601,0.6-0.601,0.6l0.198,0.4c0,0,0.899,0,1.399,0
		s2.301,0.3,2.301,0.3l-0.2-0.4c0,0-0.897-0.4-1.199-0.9c-0.198-0.6-0.398-2.4-0.5-2.8c-0.101-0.4,1.199-0.4,1.199-0.4L327,55
		l-3.301-0.2l-1.103,2.5l-2.5-2.2l-2.452,0.572c-0.12,0.246-0.229,0.489-0.315,0.714C317.541,56.394,317.791,56.438,317.9,56.6z"/>
	<path d="M342.5,25.2c1.1-0.7,1.199-1.5,1.3-1.7c0.103-0.2-0.601-0.5-0.8-0.4c-0.2,0.1-1.7,1.4-2.101,1.5
		c-0.399,0.1-1.5,0.2-2.303-0.2c-0.8-0.4-1.3-1-1.3-1c-0.101,0.2-0.301,1.6,1,2S341.4,25.9,342.5,25.2z"/>
	<path d="M338.9,20.8c0.101,0.6,1.101,1.2,1.8,1.4c0.7,0.2,2-0.3,2.397-0.4c0.399-0.1,0.5,0.3,0.899,0.5
		c0.399,0.2,0.899,0.2,1.301,0.2c0.399,0,1.603,0,2-0.2c0.399-0.2,0.899-0.7-0.2-0.5c-1,0.2-2.197-0.4-3.197-0.8s-1-2.1-1-2.1
		S341,19,340.4,19c-0.603-0.1-1.5-0.4-1.5-0.4s-0.303,0.2-0.399,0.3c-0.1,0.1-0.4,0.2-0.5,0.4c-0.101,0.2-0.601,0.1-1,0.1
		c-0.4,0-0.5,0.6-0.4,0.9c0,0,0.303,0.3,0.603,0.2c0.301-0.1,1.101-0.5,1.301-0.5C338.8,20,338.699,20.2,338.9,20.8z M340.6,20.5
		c0.2,0.3,0.7,0.1,0.7-0.2c0.103-0.3,0.103-0.7,0.103-0.7s0.5,0.3,0.601,0.5c0.101,0.2,0.3,0.9-0.601,1.2
		c-0.899,0.3-1.399-0.8-1.399-1.4C340,19.9,340.4,20.2,340.6,20.5z"/>
	<polygon points="372.8,61.3 372.5,60.8 371.9,61.2 372.199,61.7 	"/>
	<polygon points="373.6,60.7 373.3,60.1 372.8,60.4 373.199,61 	"/>
	<path d="M330.5,19.9c-0.2,0-0.801-0.1-1-0.3c0-0.1-0.5,0.1-0.7,0.3c-0.2,0.2-0.3,0.6-0.2,1c0.103,0.3,1.2,0.1,1.5,0
		c0.303-0.1,0.899-0.2,0.899-0.4C331.1,20.3,330.699,19.9,330.5,19.9z"/>
	<path d="M312.6,41.4c0.603-0.1,0.2-0.7-0.197-0.7C312,40.8,312,41.5,312.6,41.4z"/>
	<path d="M314.699,48.7c-0.199,0-0.5,0.1-0.5,0.1v0.3l1,0.2l0.397-3.4H315.4c0,0-0.2,0.5-0.5,0.5c-0.2,0-3.303-0.5-3.603-0.6
		c-0.2-0.1-0.301-0.7-0.301-0.7h-0.199c0,0.2,0,0.9,0,1.1c0,0.2-0.5,2-0.5,2l1.3,0.5v-0.3c0,0-0.697-0.5-0.8-0.6
		c-0.101-0.2,0.3-1.1,0.3-1.1L313,47c0,0-0.101,0.4-0.2,0.7c0,0.3-0.397,0.3-0.397,0.3v0.3l1.197,0.2v-0.3c0,0-0.3-0.1-0.3-0.3
		c0-0.2,0.2-0.8,0.2-0.8l1.6,0.2c0,0-0.1,0.4-0.1,0.7S314.9,48.7,314.699,48.7z"/>
	<path d="M314.8,42.6c-0.3,0-3.2,0-3.5,0s-0.3-0.4-0.3-0.4h-0.2l-0.101,1.8h0.3c0,0,0-0.5,0.301-0.5c0.3,0,1.103,0,1.103,0
		s0,0.7,0,1s0.3,1,0.697,1c0.303,0,1,0.1,1.5,0s1-0.9,1-1.3c0-0.4,0-2.1,0-2.1h-0.3C315.3,42.1,315.1,42.6,314.8,42.6z
		 M314.699,44.8c-0.3,0.1-0.5,0.1-0.899,0.1c-0.397,0-0.601-0.1-0.601-0.3c0-0.2,0-1,0-1L315,43.5c0,0,0.1,0.5,0.1,0.7
		C315.1,44.4,315,44.7,314.699,44.8z"/>
	<path d="M287.4,64.4l-0.6-0.5c0,0-2.4,1.2-3,1.5c-0.6,0.3-2.2,0.9-2.2,0.9l0.601,0.4c0,0,1.5-0.7,2-0.8
		C284.9,65.6,287.4,64.4,287.4,64.4z"/>
	<path d="M288,64.9c0,0-2,0.9-2.5,1.2c-0.5,0.3-2.4,1.2-2.4,1.2l0.601,0.5l4.899-2.6L288,64.9z"/>
	<path d="M290.5,67.7c-0.3,0.2-0.5-0.3-0.3-0.6c0.199-0.2,1-0.6,1-0.6l-0.7-0.3c0,0-0.7,0.3-1,0.5c-0.3,0.2-1-0.2-0.601-0.4
		c0.4,0,1-0.5,1-0.5l-0.5-0.2c0,0-1.8,0.9-2.399,1.2c-0.6,0.3-2.6,1.2-2.6,1.2l0.5,0.4c0,0,1-0.4,1.301-0.7c0.3-0.2,0.6,0.4,0.3,0.6
		c-0.3,0.2-1,0.5-1,0.5L286,69c0,0,0.7-0.3,1.1-0.5s0.8,0.1,0.601,0.3c-0.2,0.2-0.9,0.601-0.9,0.601L288,69.8l4.7-2.5l-0.6-0.3
		C292.1,67,290.8,67.6,290.5,67.7z M289.3,68.9c-0.2,0.199-0.4,0.3-0.7,0c-0.399-0.301,0.3-0.602-0.2-1s-1.2,0.3-1.399-0.1
		c-0.101-0.3-0.101-0.4,0.399-0.5c0.601-0.3,1.3-0.1,1.7,0.2S289.5,68.7,289.3,68.9z"/>
	<path d="M279.6,29.8c-0.1,0.1-0.399,0.1-0.6,0c-0.2-0.1-2.101-1.5-2.3-1.6c-0.101-0.1-0.2-0.3-0.101-0.5c0.101-0.1,0.2-0.2,0.2-0.2
		l-0.4-0.2l-1,1.7l0.2,0.1c0,0,0.4-0.3,0.601-0.2c0.199,0.1,2.6,1.7,2.8,1.8c0.2,0.1,0.2,0.3,0.2,0.3l-0.101,0.3l0.2,0.1l1-1.7
		l-0.3-0.3C280,29.4,279.7,29.7,279.6,29.8z"/>
	<path d="M285.6,63c0.101,0-1.5,0.8-1.8,0.9c-0.3,0.2-3.2,1.5-3.2,1.5l0.5,0.4l5-2.4L285.6,63z"/>
	<path d="M275.3,34.7c-0.8-0.2-2.6,0-2.8,1c-0.2,0.7-0.4,1.8,1.2,2.2c1.6,0.4,3.199,0.5,3.6-1C277.8,35.4,276,34.9,275.3,34.7z
		 M276.7,36.5c-0.101,0.5-0.301,1-0.5,1c-0.2,0-1.4,0.1-2.4-0.2c-1.1-0.3-0.8-1.1-0.7-1.5c0.2-0.6,2-0.4,2.8-0.1
		C276.6,36,276.8,36,276.7,36.5z"/>
	<path d="M275.6,29.7c0.101-0.2,0.101-0.2,0.101-0.2l-0.301-0.1c0,0-0.5,0.7-0.699,0.9c-0.2,0.3-0.5,1-0.5,1h0.3c0,0,0.7-0.5,1-0.4
		s2.7,1,2.7,1s-1.4,0-1.9,0.2c-0.6,0.2-2.5,0.5-2.5,0.5c-0.2,0.2-0.6,0.9-0.6,0.9l0.1,0.1c0,0,0.2-0.3,0.5-0.2c0.3,0.1,3,1,3.2,1.2
		c0.2,0.1,0.2,0.5,0.2,0.5l0.199,0.1l0.6-1.6l-0.2-0.1c0,0-0.1,0.5-0.4,0.5c-0.3,0-2.5-1-2.5-1s2.4-0.3,2.9-0.5c0.5-0.1,1-0.2,1-0.2
		l0.3-0.6c0,0-3.3-1.4-3.5-1.5C275.4,30.2,275.5,29.9,275.6,29.7z"/>
	<polygon points="278.7,27.5 277.8,27.5 278.2,28.3 279.2,28.4 	"/>
	<path d="M312,37.6c-0.7,0-0.601,0.7,0,0.7C312.6,38.3,312.6,37.5,312,37.6z"/>
	<path d="M276.1,39c-0.3,0-3-0.2-3.3-0.2c-0.3,0-0.3-0.7-0.3-0.7h-0.4c0,0-0.2,0.9-0.2,1.2c0,0.3,0,0.9,0,0.9h0.301
		c0,0,0-0.5,0.199-0.5c0.2,0,1,0,1,0l0.1,2.3c0,0-1,0-1.2,0c-0.2,0-0.3-0.7-0.3-0.7h-0.3v2.1h0.3c0,0,0.2-0.6,0.5-0.6s2.7,0,3,0
		c0.2,0,0.5,0.6,0.5,0.6h0.2c0,0,0.199-0.7,0.1-1c-0.1-0.3,0-1,0-1H276c0,0-0.101,0.6-0.5,0.6c-0.4,0-1.3-0.1-1.3-0.1l0.1-2.3
		c0,0,1.1,0.2,1.3,0.2c0.2,0,0.5,0.2,0.5,0.4c0,0.2,0,0.4,0,0.4l0.4-0.2c0,0,0-0.7,0-0.9s0.2-0.7,0.2-0.7h-0.3
		C276.4,38.8,276.4,39,276.1,39z"/>
	<path d="M312.9,38.9c-0.2,0.1-1.5,0.2-1.803,0.2c-0.3,0-0.397-0.5-0.397-0.5h-0.2c0,0,0.199,0.7,0.199,1c0,0.2,0.101,0.9,0.101,0.9
		h0.2c0,0,0.1-0.4,0.1-0.5c0-0.2,0-0.3,0.2-0.2c0.2,0,1.8-0.1,1.8-0.1s1.7,1.3,1.9,1.4c0.199,0.1,0.199,0.6,0.199,0.6h0.301
		c0,0,0.1-0.6,0.1-0.9c0-0.3,0-0.9,0-0.9h-0.3c0,0,0,0.3,0,0.4c0,0.1-0.101,0.2-0.397,0c-0.303-0.2-1.5-1-1.5-1s1-1.6,1.197-1.8
		c0.2-0.2,0.5,0.3,0.5,0.3h0.2l-0.3-1.5l-0.2-0.1l-0.2,0.1c0,0,0,0.4-0.197,0.6c-0.2,0.2-1,1.2-1.103,1.5
		C313.199,38.6,313.1,38.8,312.9,38.9z"/>
	<path d="M281.6,25.6c-0.3,0-2.1,0.2-2.8-0.2c-0.7-0.4,0.9-1.1,1.2-1.1s1.3,0.4,1.3,0.4l0.1-0.2l-1.1-1.3l-0.3,0.3v0.3
		c0,0-0.5,0.1-1,0.3c-0.5,0.2-1,0.9-0.9,1.3c0.101,0.4,0.7,0.9,1.7,0.9s1.8-0.1,2.1,0.2c0.301,0.3,0.101,1-0.6,1.1
		c-0.701,0.1-1.3-0.4-1.3-0.4l-0.101,0.2l1.4,1.5v-0.6c0,0,0.5-0.3,1-0.3c0.5-0.1,0.6-1.2,0.4-1.7C282.4,25.8,282,25.6,281.6,25.6z"
		/>
	<path d="M286.3,40.8c0.1-0.2,0-0.7,0-1c0-0.2-0.1-0.4-0.3-0.5c-0.3-0.2-1-0.1-1.4-0.1c-0.5,0-0.6-0.3-0.5-0.4h-0.2
		c0,0-0.199-0.2-0.199,0.1c0.1,0.3,0.699,0.6,1.5,0.6c0.699,0,0.6,0.3,0.3,0.3c-0.301,0-0.7,0-1.2-0.1c-0.5-0.1-0.7,0-1.2-0.2
		c-0.6-0.2-0.8,0-1,0c-0.2,0-0.2,0.1-0.4,0.4c-0.199,0.3-0.3,0.5,0.101,0.8c0.399,0.3,0,0.3-0.2,0.4c-0.2,0.2,0,0.2,0.3,0.2
		c0.3,0,0.8-0.4,0.8-0.3c0,0.2-1.199,0.8-1,0.8c0.2,0,0.2,0.2,1,0c0.801-0.2,0.801-0.5,1-0.6c0.2-0.2,0.801-0.4,1.2-0.3
		c0.5,0.1-0.1,0.2-0.399,0.3c-0.301,0.2-1.101,0.5-0.7,0.5c0.3,0,0.899,0,1.1-0.2c0.2-0.1,0.9-0.2,1.3-0.2
		C286.6,41.3,286.2,40.9,286.3,40.8z"/>
	<path d="M288,30.2c0.025,0.078,0.051,0.148,0.074,0.214C288.213,30.298,288.413,30.283,288,30.2z"/>
	<path d="M289.3,45.1c0.7-0.1,1-0.2,1-0.2v-0.3c0,0-1.3,0.1-1.8,0.2c-0.4,0-6,0-6,0l0.2,0.4c0,0,2.3,0.1,2.899,0.1
		C286.2,45.3,288.7,45.2,289.3,45.1z"/>
	<path d="M284.2,47.4c0.1,0.3,3,6.3,3,6.3l0.3-0.3l-2.8-6.2h0.6l2.5,5.7l0.1-0.5l-2-5.1h0.7l1.7,4.2l0.2-0.6l-1.3-3.6L288,47l1,2.9
		l0.3-1l-0.7-2.2l0.601-0.2l0.399,1.4l0.4-1l-0.2-0.9h0.5c0,0,0.1,0.6,0.2,0.2c0-0.3,0.3-1,0.3-1s-0.4,0.2-0.601,0.4
		C290,45.8,287.5,46.5,287,46.7c-0.5,0.2-2.5-0.2-2.9-0.2s0,0.4,0,0.4S284.1,47.1,284.2,47.4z"/>
	<path d="M286.3,53.5c-0.3-0.4-2.2-5.5-2.2-5.5s-0.2,0.3-0.1,0.6c0,0.2,0.899,2.5,1.399,3.5c0.5,0.9,1.2,2.3,1.2,2.3l0.2-0.2
		C286.8,54.2,286.6,53.9,286.3,53.5z"/>
	<path d="M284.6,35.6c0.101,0-0.399-0.1,0,0.2c0.4,0.3,1,0.4,1.3,0.4c0.301,0,0.2,0.3-0.199,0.3c-0.4,0-0.9-0.1-1.4-0.3
		c-0.4-0.3-0.7-0.4-1-0.5c-0.3,0-0.5,0.2-0.6,0.5c-0.2,0.3-0.2,0.3-0.2,0.4c0,0.2,0.3,0.4,0.3,0.6c-0.101,0.2-0.5,0.5-0.4,0.7
		c0.2,0.2,0.3-0.1,0.5-0.2c0.2-0.1,0.3-0.2,0.601-0.1c0.3,0.1-0.601,0.5-0.7,0.6c-0.101,0.2,0,0,0.5,0s0.6-0.2,0.8-0.2
		c0.2-0.1,0.5-0.3,0.8-0.4c0.3-0.1,0.8-0.2,0.7,0c-0.2,0.2-1.3,0.3-1.2,0.5c0.101,0.1,0.4-0.1,0.8-0.1c0.4,0,0.9,0.2,1.2,0
		c0.3-0.2,0-1.1,0-1.3c0-0.2,0.101-0.3,0.2-0.5c0.2-0.2-0.2-0.2-0.9-0.3C285,35.8,285,35.7,284.6,35.6z"/>
	<path d="M283.8,34.1c0.2,0.1,0.4,0,0.8-0.1s0.5-0.1,0.7-0.2c0.2-0.1,0.6-0.1,0.7-0.1s-0.2,0.3,0,0.4s0.5,0,0.8,0
		c0.2,0,0.1-0.2,0-0.4c-0.1-0.2,0-0.3,0.1-0.4c0.101,0,0.101-0.4,0-0.7c-0.199-0.3-0.3-0.2-0.5-0.6c-0.199-0.4,0.5-0.3,0.801-0.5
		c-0.2,0.1-0.101-0.2-0.301-0.2c-0.199,0-1,0.2-1,0.6c0,0.3,0.4,0.7,0.601,0.8c0.2,0.2,0.2,0.4,0.2,0.4s-0.5,0.2-1,0
		c-0.4-0.2-0.2-0.4-0.601-0.5c-0.399-0.1-0.6,0.3-0.6,0.3s0.1,0.3,0.1,0.4c0,0.1-0.1,0.2-0.2,0.4c-0.1,0.2-0.3,0.2-0.6,0.2
		C283.5,33.9,283.6,34.1,283.8,34.1z"/>
	<path d="M288.074,30.414c-0.029,0.024-0.057,0.051-0.074,0.086c-0.09,0.181-0.017,0.209,0.072,0.433
		c0.009-0.012,0.021-0.019,0.027-0.033C288.174,30.752,288.138,30.603,288.074,30.414z"/>
	<path d="M288.8,39.5c-0.2-0.5-0.2-1.2-0.1-1.5c0.1-0.3,0.3,0.3,0.6,1.1c0.3,0.7,1,0.9,1.3,1c0.3,0.1,0,0.4-0.3,0.6
		c-0.3,0.2-1,0.3-1.5,0.3s-0.1,0.2-0.1,0.4c0,0.2-0.801,0.1-0.9,0.2c-0.099,0.1,0.3,0.1,1,0.2c0.8,0.1,1.3,0,1.9-0.4
		c0.6-0.4,0.3-2.2,0.199-2.5c-0.1-0.3-0.6-1.1-0.6-1.4s0.6-0.4,0.6-0.6c0-0.2,0-3.6,0-4s0.101-0.8,0.2-1.1c0.101-0.3,0-0.7-0.3-0.6
		c-0.2,0-0.2,0.2-0.4,0.6c-0.199,0.4,0,0.7,0.101,1c0.1,0.3,0.1,3,0.1,3.5s-0.3-1.2-0.399-1.7c-0.101-0.5-0.2-1.2-0.2-1.7
		c0-0.4,0.2-1.6,0.3-2c0.2-0.3,0.5-1,0.5-1.3c0-0.3-0.2-0.5-0.2-0.5s-0.2,0.1-0.3,0.3c-0.2,0.2-0.2,0.4-0.2,0.4H289.2l-0.2-0.5
		c0,0-0.101,0.1-0.3,0.2c-0.2,0.1-0.2,0.3-0.2,0.7c0,0.4,0.1,0.3,0.1,0.6c0,0.3,0.3,0.4,0.5,0.5c0.2,0.1-0.2,0.4-0.3,0.7
		c-0.2,0.2-0.2-0.1-0.3-0.3c-0.187-0.186-0.371-0.122-0.558-0.271c-0.024,0.046-0.043,0.099-0.043,0.17c0,0.3,0.101,3.7,0.101,4.1
		c0,0.4,0.3,0.8,0.7,0.8c0.3,0,0.399-0.3,0.3-0.6c-0.101-0.3-0.5-0.3-0.5-0.5c0-0.2,0.1-0.3,0.3-0.2c0.2,0.1,0.8,1.3,0.8,1.7
		s-0.3,0.2-0.6,0c-0.3-0.2-0.7,0-1,0.2c-0.3,0.2,0.3,2.4,0.3,2.7c0,0.4-0.5,0.3-0.6,0.5c-0.2,0.2,0.8,0.2,1.399,0.2
		C289.7,40.4,289,40,288.8,39.5z M288.6,34c-0.3,0.1-0.3,0-0.3-0.4s0.3-1,0.3-1C288.6,33,289,33.9,288.6,34z M289.5,34.3
		c-0.2,0.2-0.2,0-0.2-0.3c0.1-0.3,0.3-0.8,0.3-0.8C289.6,33.5,289.7,34.1,289.5,34.3z"/>
	<path d="M288.1,31c-0.01-0.029-0.018-0.044-0.027-0.067c-0.115,0.164-0.358,0.188-0.173,0.467c0.016,0.015,0.029,0.018,0.043,0.03
		C288.022,31.284,288.176,31.228,288.1,31z"/>
	<path d="M357.8,68.3c0.3,0,3,0.4,3,0.4l-0.101-0.3c0,0-0.399-0.1-0.899-0.4c-0.5-0.4-0.7-1.2-0.897-1.5
		c-0.2-0.4-0.899-0.7-0.899-0.7s1.101-1,0.899-1.3c-0.103-0.3-0.103-0.9-1.399-1.2c-1.301-0.4-7.2-1.4-7.2-1.4l0.399,0.4
		c0,0,0.7,0.3,0.897,0.7c0.103,0.4,1,3.2,1.2,3.6c0.103,0.4-0.8,0.1-0.8,0.1V67l4.3,0.7l-0.101-0.2c0,0-0.8-0.3-0.899-0.5
		c-0.101-0.2-0.397-1.2-0.397-1.2s1,0.4,1.601,0.8C357.101,67,357.5,68.3,357.8,68.3z M354.8,64.9l-0.5-1.7c0,0,0.7,0,1.3,0.2
		c0.7,0.1,0.899,0.4,1.103,0.9c0.3,0.5-0.103,0.9-0.399,0.9S354.8,64.9,354.8,64.9z"/>
	<path d="M241.8,64.9l-0.1,0.4l7-2l0.3-1.8c0,0-1.101,1.4-2,1.8c-0.9,0.4-1.601,0.3-1.601,0.3l0.301-2.2c0,0,0.8,0,1,0.1
		c0.3,0.1,0.399,0.6,0.399,0.6l0.4-2.2c0,0-0.2,0.3-0.601,0.7c-0.399,0.3-1,0.3-1,0.3l0.4-1.5c0,0,1-0.5,1.6-0.5
		c0.7,0,0.5,0.7,0.5,0.7L249,59.5l0.399-2c0,0-2.199,0.7-3.5,1.1c-1.3,0.4-3.5,1.2-3.5,1.2v0.3h0.301c0,0,1.1-0.3,1.1,0.3
		s-0.5,3.1-0.8,3.6S241.8,64.9,241.8,64.9z"/>
	<polygon points="240,63.2 240.8,64.7 242.1,63.1 241.4,61.8 	"/>
	<path d="M236.6,62.4V62c0,0-0.5,0.3-1.6,0.6c-1,0.3-3.2,0.5-3.2,0.5v0.3c0,0,0.7,0,1,0c0.3,0,0.3,0.4,0.2,1.1
		c-0.2,0.7-0.4,3.2,3.1,2.2s2.8-3.5,2.9-3.8c0.1-0.3,0.3-1.3,0.3-1.3l1-0.3v-0.4l-3.4,0.9V62c0,0,0.9-0.3,0.9-0.1
		c0,0.3-0.3,1.8-0.4,2.8c-0.199,1.3-2.399,2.3-2.3,1c0.101-1.3,0.4-2.6,0.7-2.8C236.1,62.6,236.6,62.4,236.6,62.4z"/>
	<path d="M209.7,67.6c-0.4,0.5-1.801,0.7-1.801,0.7s3.601,0.3,4.101,0.4c0.8,0.2,4.8,0.399,5.8-1.1c0.7-1.2,0.8-2.3,0.1-2.7
		c-0.699-0.3-5.6-0.9-6.6-0.9s-0.6,0.3-0.6,0.3s0.699,0.1,0.5,0.5C211,65.2,210.2,67,209.7,67.6z M213.9,64.8
		c0,0,1.301,0.2,1.801,0.3s0,1.2-0.101,1.7c-0.1,0.5-0.7,1.3-1.399,1.5c-0.7,0.1-1.9-0.2-1.9-0.2L213.9,64.8z"/>
	<path d="M224.4,67.7c-0.199,0.5-1.3,0.7-1.3,0.7l-0.1,0.3c0,0,4.1-0.101,5.5-0.3c1.5-0.3,2.1-0.4,2.1-0.4l0.3-1.3l-0.3-0.1
		c0,0-0.3,0.5-0.7,0.8c-0.8,0.6-3,0.7-3,0.7l0.601-1.6c0,0,0.7-0.2,1.1,0s0.601,0.6,0.601,0.6l0.8-2.2c0,0-0.8,1-1.101,1
		c-0.3,0-1.199-0.1-1.199-0.1l0.399-1.2c0,0,1.2-0.6,1.9-0.4c0.7,0.2,0.8,0.9,0.8,0.9l0.3-1.4c0,0-3,0.5-3.7,0.6
		c-0.699-0.1-2.8,0-2.8,0l-0.1,0.3c0,0,0.899,0.1,0.7,0.9C225,66.3,224.6,67.1,224.4,67.7z"/>
	<path d="M219.2,68c-0.7,0.3-1.2,0.3-1.2,0.3l-0.2,0.3h4.7v-0.3l-0.9-0.2l1.4-3.4l1.1-0.1l0.101-0.4l-4.7,0.2v0.4
		c0,0,1.1-0.1,1.1,0.4s-0.1,0.6-0.5,1.6C219.8,67.4,219.8,67.8,219.2,68z"/>
	<path d="M367.6,67.8c-0.1-0.5,0.103-0.7-0.697-2c-0.803-1.3-3.2-1.7-4.5-1.7c-2.803-0.1-2.899,1.1-2.603,2c0.8,2.2,3,3.3,5.3,3.3
		C367.3,69.4,367.699,68.3,367.6,67.8z M363,67.7c-0.2-0.6-1.2-1.9-1.301-2.5c-0.199-0.6,0.801-0.7,0.801-0.6
		c0.6,0.1,1.1,0.2,1.5,0.9c0.5,0.7,0.8,1.7,1.1,2.4c0.303,0.7,0.4,0.8-0.6,0.9C364.199,68.8,363.199,68.3,363,67.7z"/>
	<path d="M349.199,66.4c0.897-0.1,1.897-0.7,1.897-1.1c0-0.4-0.197-1.7-0.3-1.9c-0.101-0.1-1-1.7-2.2-1.9
		c-1.101-0.2-4.897-1.2-5.8-1.5c-0.101,0-0.2-0.1-0.2-0.1l0.303,0.7c0,0,0.897,0.3,0.897,0.7c0.103,0.4,0.5,2.9,0.603,3.4
		c0.101,0.5-0.899,0.1-0.899,0.1l0.1,0.4C343.6,65.2,348.4,66.4,349.199,66.4z M347.6,62.1c0.603,0.4,1,1.5,1.2,2
		c0.3,0.4,0.5,1.7-0.101,1.7c-0.603,0-1.5-0.3-1.5-0.3l-0.103-0.2L346.4,62l-0.103-0.4C346.3,61.6,347,61.7,347.6,62.1z"/>
	<path d="M341.3,60.1v-0.4l-3.5-1.1L337.9,59c0,0,0.697,0.6,0.8,0.8c0.101,0.2,0.397,2.3,0.397,2.3l-2.697-4l-3.2-1.1l-0.399-0.1
		v0.4c0,0,0.899,0.6,1,1.1c0.103,0.5,0.399,1.8,0.5,2.6c0.103,0.8-1,0.4-1,0.4v0.4l3.3,1v-0.4c0,0-0.601-0.2-0.601-0.6
		c0-0.4-0.399-2.6-0.399-2.6l3.5,4.5l1.803,0.5c0,0-0.7-3.9-0.7-4.2S341.3,60.1,341.3,60.1z"/>
	<path d="M391.8,70c-2.2,0.2-14.601,2.201-28.101,0.6c-12-1.398-24.103-4.8-31.8-7.5c-7.7-2.7-10.803-1.7-14.399,0.4
		c-3.801,2.2-5.801,6.3-5.801,6.3s0-1.3,0.2-1.7c0.101-0.4,0.5-1.2,0.8-1.9c0.301-0.7,1.7-2.3,2.101-3.2c0.5-1,2.103-5,2.3-5.9
		c0.05-0.194,0.127-0.441,0.23-0.714C317.151,56.38,317,56.4,317,56.4l0.1-0.6l0.549-0.128c0.336-0.682,0.796-1.382,1.354-1.772
		c1-0.7,8.1-0.1,9.8,0.2c1.7,0.3,15.3,4.5,22.5,6.3c7.2,1.8,15.399,2.3,15.8,2.2c0.399-0.1,0.899,0.5,0.603,0.9s-0.8,0.3-0.8,0.3
		v0.3c0,0,1.397,0.5,1.697,0.6c0.303,0.1,1.2,3,1.4,3.7c0.3,0.7-0.801,0.6-0.801,0.6v0.4l4.398-0.101l-0.1-0.3c0,0-1-0.1-1.102-0.5
		c-0.101-0.3-0.301-1.5-0.301-1.5s1,0.8,1.7,1.2c0.8,0.5,1.899,0.2,1.899,0.2L375,69l-0.9,0.6l4.7-0.1l-1.2-0.6L377,67l0.899-1.2
		L379,65.9l0.699,1.1l0.897-0.1l-1.3-2.8l-2-0.2c0,0-0.301-0.7,0-0.7c0.3,0,1.199,0,1.699,0.1c0.5,0.1,1.2,0.4,1.4,0.6
		c0.3,0.2,1.897,1.9,1.897,1.9l-1.2,1.4l2.306,1.9l1.8-1.898l-1.5-1.4l0.5-0.6l-1.103-1.8c0,0,3.103,0.3,3.399,0.3
		c0.3,0,0.2-1.1,0.2-1.1s0.397,0.2,0.7,0.2c0.3,0,0.5-0.3,0.5-0.3l0.8,0.3c0,0,0.601-0.2,0.601-0.4c0.103-0.2-0.601-1.7-0.601-1.7
		l3.2,0.9l-6.5,4l3.5,1.1l8.3-4.5l1.2-4.3c0,0-3.603,1.9-4.103,2.1c-0.601,0.1-1.397-0.8-1.397-0.8s1.897-2.1,2.3-2.8
		c0.5-0.6,0.8-1.9,0.8-1.9s-2.6,1-3,1.1c-0.399,0.1-2,0.6-2,0.6s0.101-1.1,0.101-1.4c0.103-0.3,0.5-2.5,0.5-2.5
		s-0.697,0.3-1.697,0.6c-1,0.3-3.9,1.6-3.9,1.6l-0.1-2.8c0,0,1.197-0.4,1.897-0.5c0.699-0.1,2.3-0.1,3.399-0.1
		c1.2,0,3.2,0.6,3.2,0.6s0.1-0.3-0.303-1c-0.5-0.7-1.601-0.8-2.197-1c-0.603-0.3-2.303-0.5-2.303-0.5s1.303-1,1.899-1.2
		c0.6-0.2,2.2-0.8,2.898-0.9C395.1,47,396.3,46.3,395.3,46s-1.897-0.1-3-0.1c-1,0-2.897,0.4-2.897,0.4s1.897-0.9,2.8-1.4
		c0.897-0.5,2.7-0.9,3.3-1.2c0.601-0.3,1.5-0.4,0.601-0.8c-0.897-0.3-2.8-0.5-3.8-0.4s-2.601,0.4-2.601,0.4s0.3-1.8,0.397-2.2
		c0.103-0.4,1-2.8,1-2.8l-1.197-0.5l-2.7,2.6l-0.5-2.2l-1.103,0.8l-1,3c0,0-0.897-0.6-1.197-0.8c-0.303-0.2-0.603-1.2-0.603-1.2
		l-0.801,0.3c0,0,0.601,1.7,0.601,2.1c0.103,0.5,0,1.4,0,1.4l-0.897-0.1c0,0,0,0-0.3-0.2c-0.303-0.2-0.5-0.3-0.7-0.6
		s-0.7-0.2-1.103-0.2c-0.397,0-0.697-0.2-0.697-0.2s0.6-1.1,1.1-1.7s1.301-1.9,1.301-1.9l-1.101-0.4c0,0-1,0.5-1.399,0.8
		c-0.397,0.3-2.801,2.1-3,2.5c-0.301,0.4-0.699,0.6-0.699,0.3c0-0.3-0.102-2.6-0.102-3.3c0-0.7-0.8-1.3-0.8-1.3s-0.5,0.9-0.603,1.4
		c-0.101,0.6-0.3,3.2-0.3,3.5s-0.2,0.8-0.397,0.6c-0.2-0.2-0.7-0.5-1.4-1.2c-0.699-0.7-1.6-1.5-1.6-1.5l-1.303,0.5
		c0,0,0.103,0.4,0.5,1.1c0.303,0.7,0.399,2.5,0.399,3.2c0,0.7-0.199,2.3-0.199,2.3c0,0.2-0.5,0.5-0.801,0
		c-0.3-0.5-0.8-1.6-0.899-1.8c-0.197-0.3-0.5-0.9-0.601-1c-0.101-0.2,0-0.5-0.399-0.8c-0.3-0.3-0.601-0.2-0.601-0.2s0,0-0.101-0.2
		c-0.102-0.2-2.102-1.5-3.5-1.4c-0.802,0.1-3,0.8-3.5,1c-0.5,0.2-2,0.8-2.199,0.7c-0.2-0.1-0.899-0.5-1.2-0.5
		c-0.3-0.1-1.8,0.5-2.199,0.6c-0.398,0.2-0.5-0.1-0.398-0.3c0.101-0.2,0.801-1.6,0.801-1.6s-0.2-0.2-0.5-0.2
		c-0.2-0.1-0.2-0.4-0.2-0.4s0.101,0,1.5-4.7c1.398-4.7-1.102-11-1.3-11.4c-0.899-2-3.5-5.4-3.5-5.4s0.101-0.3,0.199-0.5
		c0.198-0.2,0.398-0.8,0.698-0.9c0.302-0.1,2.399-1.5,3.302-1.8c0.898-0.3,2.698,0.3,3.698,0.5c0.899,0.1,1.103-0.6,1.103-1.5
		c0-0.9,0.2-1.2,0.601-1.4c0.3-0.2,2.199-0.8,2.199-0.8v-0.3c0,0-2.398,0.5-3.1,0.8s-0.9,1.2-0.9,1.6s-0.1,0.7-1.1,0.4
		s-1.9-0.5-2.2-0.5s-2.899,1.3-3.2,1.5c-0.3,0.2-0.5,0-0.601-0.7c-0.102-0.7-0.5-1.7-1-2.2S348.6,12,348.6,11.5s0-1.8,0-1.8l-1-0.7
		c0,0-0.897,1.3-1.101,1.6c-0.3,0.3-1.3,1.3-1.601,1.7c-0.302,0.4-0.302,2.1-0.302,2.1s-0.698-0.6-0.897-1c-0.2-0.4,0.3-1.4,0.3-2
		S343.8,9.8,343.8,9.2c0-0.5-0.2-1.2-0.2-1.2L342.4,7.6c0,0-0.103,0.3-0.303,0.8c-0.3,0.4-0.8,1.2-1.101,1.6
		c-0.3,0.4-0.601,1-0.601,1s-1.399-1.1-1.899-1.4c-0.5-0.3-1-0.3-1-0.3s-0.399-0.9-0.899-1.2c-0.397-0.3-1.5-0.5-1.5-0.5
		s-1-0.9-1.3-1.4S332.4,6,332.4,6c-0.262-0.467-0.386-0.69-0.474-0.826C332.067,5.533,332.5,6.4,332.5,6.4s0.8-0.4,1.3-0.1
		c0.3,0.2,0.899,1.8,0.899,1.8s1.3-0.1,1.601,0.1c0.399,0.3,1.2,1.5,1.399,1.6c0.2,0,1.101,0.2,1.397,0.4
		c0.303,0.3,1.2,1.2,1.303,1.3c0.1,0.1,0.197,0.3,0.197,0.3s0.399,0.1,0.803,0.3c0.5,0.2,0.697,0.9,0.697,0.9s1.103,0.1,1.303,0.4
		c0.197,0.3,0.3,1.6-0.4,1.1c-0.699-0.4-0.199-1.1-0.699-1c-0.5,0,0,0.6-0.5,0.5c-0.397,0-1.2-0.3-1.2-0.3s0.2-0.9-0.197-1.2
		c-0.4-0.4-0.7-0.8-0.7-0.5s0,1.1,0,1.3c0,0.2-0.7,0.2-1-0.3c-0.399-0.5-1.2-2.2-1.5-2.6S336.6,9.8,336.6,9.9
		c-0.1,0.1,0.2,1,0.2,1.3c0,0.3-0.601,0.5-0.8,0.2c-0.2-0.3-0.801-1.9-1-2.2c-0.2-0.3-0.4-0.3-0.4-0.2s0.103,0.9,0.103,0.9
		s-1-0.1-1.199-0.6c-0.2-0.4-0.399-1-0.5-1.5c0-0.5-0.399-0.9-0.5-0.8s0.101,0.5,0.101,0.6S332.1,8,331.699,7.7
		C331.3,7.4,331,6.6,330.8,6.1c-0.2-0.4-0.397-0.5-0.397-0.5s0,0.2,0,0.4c0.101,0.2-0.399,0.5-0.899-0.3
		c-0.5-0.7-0.301-1.1-0.301-1.1s-0.399,0.3-0.5,0.4c-0.103,0-0.399,0-0.699-0.6c-0.301-0.6-0.5-1.1-0.601-1.1c0,0-0.103,0.3-0.2,0.4
		c0,0.1-0.399,0.3-0.603-0.1c-0.197-0.4-0.3-1.3-0.197-1.4c0-0.2,0-0.7,0.3-0.2s0.8,0.9,0.8,0.9s0.5-0.3,0.801,0
		c0.3,0.3,0.8,1.2,0.8,1.2s0.7-0.4,1.103-0.1c0.301,0.3,0.601,0.9,0.601,0.9s0.743-0.08,1.025,0.133
		c-0.038-0.043-0.075-0.082-0.128-0.133c-0.3-0.3-1-0.2-1-0.2S330.5,4.4,330.3,4C329.9,3.4,329,3.7,329,3.7s-0.301-0.5-0.601-0.9
		c-0.302-0.3-0.802-0.3-1.102-0.3c0,0-0.3-0.8-0.601-0.9c-0.301-0.2-0.7-0.3-0.801,0.3c-0.102,0.7,0.102,1.4,0.301,1.9
		s1.101,0.7,1.397,0.7c0.302,0,0.302,0.3,0.5,0.9c0.302,0.6,1,0.8,1.399,0.8c0.301,0,0.301,0.4,0.601,1.1C330.4,8,331,7.7,331.6,8
		c0.603,0.3,0.103,0.7,0.603,1.3c0.5,0.6,0.897,0.5,1.397,0.5c0.4,0,0.303,0.7,0.803,1.2c0.397,0.5,0.897,0.6,1.101,0.6
		c0.3,0,0.601,0.5,1,1c0.3,0.5,1.399,0.7,1.399,0.7l-0.399,0.4c0,0-1.301,0.1-1.899-0.1c-0.601-0.2-1,0-1,0s0.302,0.5,0.5,0.9
		c0.3,0.3,1.1,1.5,1.1,1.5s0,0-0.8-0.1c-0.802-0.1-2.102-0.9-2.102-0.9s-0.7,0.1-0.5,0.6s1.103,1.8,1.3,2.1
		c0.2,0.3-0.397,0.6-1.197,0.5c-0.803-0.1-1.4-0.5-1.9-0.7s-1.3,0-1.699,0c-0.397,0-1.301,1.3-1.699,1.5s-1,0.6-1.602,0.8
		c-0.6,0.2-1.1-0.1-2.3,0.5c-1.2,0.6,0.3,2.7,0.101,3.1s-1,1-0.5,1.4c0.5,0.4,1.5,2.2,1.5,2.2S324.5,28,323,28.6
		c-1.6,0.6-1.6,2-1.8,2.8c-0.2,0.9,0.3,3.2,0.3,3.2l1.2-0.3c0,0,0.3-0.9,0.397-1.4c0.103-0.5,0.399-1,2.603-0.8
		c2.2,0.2,2.397-0.7,2.8-1.6c0.301-0.9,0.9-2.9,1.4-3.2c0.397-0.3,1-0.4,1.6-0.2c0.601,0.3,1.7,0.2,2.301-0.5
		c0.603-0.7,1.103-0.9,1.603-0.7c0.5,0.2,1.397,1.2,1.397,1.2s0,0.8,0.3,1.5c0.303,0.7,1.603,1,1.603,1l0.101,1.7l-1,0.2
		c0,0-0.8,0.5-0.897,0.9c-0.2,0.4-1.801,1.4-1.801,1.4s-0.5-0.9-0.699-1.6c-0.2-0.6-1.103-1.8-1.103-1.8l-1.897,0.1
		c0,0-0.2,2.1-0.103,2.8c0.103,0.7-0.3,3.8-0.3,3.8l1,1.2c0,0-2.398,0.3-6-0.5c-1.801-0.4-6.898-2.7-6.898-2.7s-0.5-1.8-0.699-2.2
		c-0.2-0.4-1-2.8-1-2.8s1.699-1.7,2.101-2.1c0.4-0.4,1.899-2.2,1.899-2.2s-1.801,0-2.103,0c-0.3,0-1.397-0.1-1.397-0.1
		s0.897-1.3,1.3-2c0.397-0.7,1.801-3.5,1.801-3.5s-1.801,0.4-2.2,0.7c-0.3,0.3-1.8,0.9-1.8,0.9s0.3-2,0.3-2.4
		c0.103-0.4,0.399-2.2,0.399-2.2s-1.8,2.1-2.2,2.6c-0.3,0.5-0.8,0.9-0.898,0.5c-0.102-0.3-0.5-4.9-0.5-4.9l-3.698,4.8l-2.801-2.1
		c0,0,0.301-0.8,0.101-1.1c-0.3-0.3-0.601-0.7-0.601-0.7l1.601-1.1c0,0,1,0.4,1.5-0.3c0.398-0.7-0.5-1-0.5-1l0.398-0.4
		c0,0,1.398,0.7,1.802-0.6c0.3-0.8-0.899-1.3-0.899-1.3l0.3-0.4c0,0,1.603,0.3,1.603-1.6c0-1.1-1.603-0.5-1.603-0.5L311,8.6
		c0,0,1.199-1,0.1-2c-0.8-0.7-2.1,0.3-2.1,0.3l-0.2-0.3c0.103-0.2,0.399-1.1-0.601-1.5c-1.102-0.4-1.602,0.9-1.602,0.9
		c0-0.2,0.103-1.3-1-1.3c-1.198,0.1-1.198,1.3-1.198,1.3h-0.302c0,0,0.103-0.8-1-0.9c-1-0.1-1,0.5-1,0.5l-0.3-0.3L301,4.1
		c0,0-0.5,0.4-0.9,0.7c-0.3,0.3-2,1.8-2,1.8V1.5l-1.2,0.2l0.301-1.2l-8-0.3l0.199,1.5l-1.2-0.3L288.1,6l-2.2-1.7l-1.3,2L284.1,6
		c0,0-0.1-1.2-1.6-1.1c-0.9,0.1-0.9,1.3-0.9,1.3h-0.4c0,0,0-1.6-1.4-1.4c-1.5,0.2-0.7,1.5-0.7,1.5h-0.3c0,0-0.7-0.9-1.6-0.4
		c-1,0.4-0.301,1.6-0.301,1.6l-0.3,0.1c0,0-0.399-1-1.6,0c-1.101,0.9,0.3,1.7,0.3,1.7L275,9.5c0,0-1.3-0.2-1.3,0.9
		c0,1.6,1.6,1.4,1.6,1.4l0.1,0.4c0,0-1.399,0.1-1,1.2c0.301,1.1,2,0.7,2,0.7s-0.3,0.7-0.1,1.2c0.3,0.5,1.5,0.4,1.5,0.4l1.2,1.4
		c0,0-0.2,0.3-0.4,0.8c-0.3,0.5,0,0.8,0,0.8s-1.3,0.7-1,1.4c0.3,0.7-0.399,0.6-1.2,0.1c-0.8-0.5-1.8-2.1-2.199-2.5
		c-0.301-0.4-1.2-1.4-1.2-1.4s-0.2,0.3-0.2,0.8c0,0.4-0.1,4.4-0.1,4.4s-2.2-1.4-2.601-1.8c-0.399-0.4-1.2-0.6-1.2-0.6
		s0.3,1.6,0.7,2.2c0.3,0.7,1.2,2.9,1.2,2.9s-1.4-0.7-1.7-0.8c-0.3-0.1-2.6-0.6-2.6-0.6s0.3,1.2,0.899,1.8c0.601,0.6,2.3,3.1,2.3,3.1
		L267,28.1l3,3.3c0,0-0.301,1.5-0.4,1.7c-0.2,0.3-0.7,2.1-0.9,2.5c-0.2,0.4-2.7,1.6-3.4,1.7c-0.7,0.1-0.7-0.3-0.9-0.9
		c-0.3-0.6-0.7-1.8-1.2-2.3s-2.1-1.3-2.399-1.7c-0.299-0.4-0.3-1.6-0.4-1.9c-0.2-0.3-0.7-1.1-1.2-1.8c-0.5-0.7,0.101-1.3,0.801-0.9
		c0.699,0.3,0.8,1.1,1.5,2.2c0.699,1,2,1.3,2,1.3s-0.301-0.6-0.7-1.3c-0.3-0.7,0.2-1.7-0.101-2.2c-0.3-0.4-1.6-1.6-1.6-1.6l0.7-1.5
		c0,0-1-0.4-1.601-0.6c-0.6-0.2-1.199-0.7-1.699-1.1s-0.9-0.7-0.4-0.7s0.9,0.3,1.9,0.2s1.8-0.4,1.8-0.4s-0.5-0.3-1.101-0.6
		c-0.6-0.3-1.399-1.5-1.399-1.5s0.5-0.3,0.7-0.8c0.199-0.4,0.5-1,0.5-1s-0.5-0.2-1-0.3c-0.5-0.2-1.601-0.4-2.2-0.8
		c-0.5-0.3-0.101-0.5-0.101-0.5s0.601,0,1.5-0.2c0.9-0.2,1-2.1,1-2.1l-0.5-0.3c0,0-0.899,0.4-1.6,0.7c-0.8,0.3-1.6,0.1-1.6,0.1
		s-0.7-0.5-0.7-0.9c0-0.3,0.6-0.8,0.6-1.4s-0.5-1-0.5-1s-0.8,0.6-1.399,0.9c-0.601,0.3-1,0.2-1.601,0.2c-0.6,0-0.5-0.2-2.5-0.3
		c-2-0.1-1,0.1-1.5,0.4c-0.399,0.3-1,0.6-1,0.6s-0.3-0.4-0.3-0.9c0.1-0.4,0.3-0.9,0.3-1.5c0-0.5-1.6-1.7-1.6-1.7s0.3-0.8,0.2-1.5
		c-0.2-0.7-1.7-0.4-1.7-0.4L243.6,7c0,0,0.9-1.2,0.3-1.9c-0.699-0.7-1.8,0.1-1.8,0.1s-0.1-1.4-0.9-1.5c-0.9-0.1-1,1.1-1,1.1
		l-0.9,0.3c0,0-0.3-0.6-1.3-0.3c-0.9,0.3,0,1.7,0,1.7L237.4,7c0,0-0.699-0.2-1.1,0.5c-0.401,0.7,0.3,1.5,0.3,1.5l-0.7-0.1
		c0,0-0.3-0.9-0.3-1.4c-0.1-0.4-0.3-1-0.3-1s0,0-0.3,0.3c-0.3,0.3-1.1,1.2-1.1,1.2L233,7.8l1.2-2.6l-5.4,2.7l2.3,0.9l-0.4,1.1
		c0,0-1.801-0.4-2-0.1c-0.2,0.3,0.899,1.4,0.899,1.4h-1c0,0-0.1-0.9-1.1-0.5c-1,0.3-0.5,0.9-0.5,0.9l-0.7,0.3c0,0-0.2-0.3-0.5-0.3
		c-0.3,0-0.4-0.5-1.4,0.7c-1,1.2,0.9,1.4,0.9,1.4l-0.1,0.9c0,0-1.4,0.8-0.9,1.4c0.4,0.6,1.3,0.2,1.3,0.2l0.7,0.4c0,0-0.3,0.9,0.4,1
		c0.699,0.2,0.8-0.4,0.8-0.4l0.5,0.3c0,0-0.3,0.7,0.3,0.8c0.5,0.1,0.9,0,0.9,0s-0.9,1.7-1.601,2.8c-0.6,1-1.5,3.5-1.7,3.9
		c-0.3,0.4,0,0.8,0.4,1.3c0.4,0.5,1,1,1.4,1.2c0.399,0.2-0.2,0.4-0.301,1c-0.1,0.5,0.2,0.8,0.2,0.8s-0.5,1.1-0.399,1.8
		c0.1,0.7,1.5,1.9,2.1,2.2c0.6,0.3,1.1,0.5,1.6,0.9c0.4,0.3,0.9,1.6,1.4,1.4c0.4-0.2,0-2.3,0-2.3s1.2-0.8,1.4-1
		c0.199-0.3,0.5-0.1,0.3,0.5c-0.2,0.6-0.3,1.6-0.2,2.1c0.2,0.5,1.1,1.3,1.6,1.3s-0.899,0.9-1.199,1.1c-0.301,0.2-2.101,0.2-2.7,0.7
		c-0.8,0.7-1.601,1.6-2.7,1.8c-1.1,0.2-1.2,0.2-1.2,0.2s0.101,0.3,0.7,0.6c0.6,0.3,1.7,0.3,2.8-0.3c1.101-0.5,1.601-1,2.4-1
		c0.899,0,1.5,0.5,1.1,0.7c-0.3,0.2-1.5,0.6-1.7,0.7c-0.3,0.1-1,0.6-1.199,0.6c-0.301,0-2.101,0.7-2.601,0.9
		c-0.5,0.3-1.399,0.7-1.2,1c0.2,0.3,2.9,1.5,2.9,1.5s-0.3,0.7-1,1c-0.6,0.3-2.3,0.3-2.2,0.6c0.101,0.3,0.5,1,0.5,1s-0.6,0.1-1.3-0.1
		c-0.7-0.2-1-1.4-1-1.4s1.5-1.3,0.7-5.7c-0.9-4.7-3.101-5.8-5.101-6.5c-2.699-0.9-9.199,0.5-10.1,0.6c-0.9,0.1,0.5-2.2-1.4-3.5
		c-0.8-0.5-2.5,0-2.5,0s-0.8-0.6-1.1-0.9c-0.3-0.3-0.8-1.3-2.7-1c-0.5,0.1-2.3,0.9-2.899,1.1c-0.5,0.3-3.4,0-4-0.3
		c-0.601-0.3-1.2,0.1-1.2,0.1s0.399,1.6,0.8,2c0.3,0.3,1.6,1.5,2,1.6c0.3,0.1,2.4-0.3,3.2-0.2s1,1.6,1,1.9s-0.5,1.3-0.601,1.9
		c-0.1,0.6,0.9,2.1,1.301,2.5c0.399,0.4,0.199,0.7-0.9,0.8c-1,0.1-0.9,1.3-0.9,1.3s-0.5-0.4-1.1-0.7c-0.6-0.3-1.1,0.3-1.1,0.3
		s0,0,0.1-0.8c0.1-0.8-0.8-1.8-1.1-2.1c-0.301-0.3-1.601-1.1-1.7-1.8c-0.2-0.7-0.3-1-0.7-0.8c-0.3,0.3-0.3,1.2-0.3,1.2l-0.3,0.6
		l-0.4-0.2l0.2,1.1l-0.4-0.1l0.2,1.1h-0.4c0,0,0.101,0.5,0.301,1c0.199,0.5,0.3,0.9,0.6,1.6c0.3,0.6,0.3,1.4,0.5,1.7
		c0.2,0.3,0.1,0.9-0.5,1c-0.6,0.1-0.4-0.6-0.5-1.3c-0.1-0.7-0.8-1.4-0.8-1.6c0-0.3-0.7-0.5-0.9-0.5c-0.3,0-0.8-0.6-0.8-0.6
		s-0.2,0.6-0.4,0.3c-0.3-0.3-0.899-0.6-0.899-0.6s-0.2,0.6-0.601,0.1c-0.4-0.5-0.9-0.4-0.9-0.4l0.1,0.7c0,0-0.3,0-0.8-0.3
		c-0.4-0.3-1.9-1.2-1.9-1.2s0.101,0.8-0.3,0.4c-0.4-0.3-1.4-0.6-1.4-0.6s0.1,0.9,0.5,1.6c0.399,0.8,0,0.7,0.399,1.3
		c0.4,0.6,1,0.8,1,0.8L187,43l0.7,0.8c0,0-0.301,0.4,0.1,0.8c0.4,0.3,0.8,0.6,0.8,0.6s-0.2,0.9,0.5,1.1c0.7,0.2,0.9,0,0.9,0
		s-0.3,0.6,0.3,0.6c0.5,0,1.3-0.3,1.3-0.3v0.5c0,0,0.3-0.1,0.8-0.2s1.2-0.4,1.601-0.7c0.399-0.3,0.8-0.2,1.2-0.2
		c0.399,0,0.1,0.8,0,1c-0.101,0.3-0.601,0.3-0.601,0.3s-0.5,0-0.899,0c-0.301,0-0.801,0.3-1.301,0.3c-0.5,0.1-0.6,0.2-1,0.3
		c-0.399,0.1-1,0.2-1.199,0.3c-0.301,0.1-0.5,0.1-1,0c-0.5-0.1-0.4,0.3-0.4,0.3s-0.8-0.1-1-0.2c-0.3-0.1,0,0.5,0.3,0.6
		c0.3,0.1,0.601,0.8,0.601,0.8s0.3,0.7,0.6,0.8c0.3,0.1,0.9,0.3,1.2,0.3s0,0.5,0,0.5s0.8,0.1,1.1,0.2c0.3,0.1-0.7,0.7-0.2,0.7
		s1.301,0.3,1.301,0.3s0,0,0.3,0.5c0.3,0.5,0.6,0.8,1.5,0.6c0.899-0.2,2.1-0.4,2.1-0.4s0,0-0.399,0.6c-0.4,0.6-0.601,1.9-0.301,1.9
		c0.301,0,1.601,0.2,1.601,0.2s0.6,0,0.6,0.3c0,0.5-0.6,0.5-1.399,0.5c-0.801,0-1.5-0.3-1.5-0.3l-0.4,0.4c0,0-0.6-0.4-1-0.3
		c-0.3,0.2-0.3,0.9-0.5,0.9c-0.3,0-0.8-0.1-1,0.2c-0.3,0.3-0.5,0.9-0.5,0.9s0,0.3,0.2,0.5c0.2,0.3,0.3,0.5,0.3,0.5s-0.4,0-0.4,0.3
		c0,0.3,1.601,0.6,1.601,0.6s0,0.3,0,0.7s1,0.2,1,0.2s0.1,0.3,0.5,0.3c0.298,0,0.648-0.276,0.811-0.418
		c-0.207-0.101-0.21-0.482-0.21-0.482s-0.7,0.3-1.399,0.4c-0.601,0-0.5-0.5-0.5-0.8c0,0,2.199-1.2,2.899-1.4
		c0.601-0.3,3.101-2,3.4-2.2c0.3-0.1,0.8,0.2,0.7,0.4c-0.2,0.2-0.801,0.7-0.801,0.7s0.2,0.9,0,1.4c-0.199,0.5-0.6,0-0.6,0
		s0,0.4-0.3,0.8c-0.3,0.4-0.7,0-0.7,0s-0.843,1.213-1.259,1.287c0.098,0.19,0.382,0.611,0.858,0.213c0.5-0.5,0.5-0.9,0.9-0.9
		c0.4-0.1,1.8,0.3,2.2,0.3c0.3,0,0.6,0.5,1,1c0.3,0.5,1.1,0.3,1.1,0.3s0,0.3,0,0.9s1.101,1.1,1.5,1.1c0.3,0,1.8-0.4,2.3-0.6
		c0.058-0.023,0.112-0.03,0.166-0.029c0.083-0.809,0.868-1.204,1.035-1.871c0.2-0.8,0.3-1.6,0.3-1.6l0.5-0.1c0,0,0,1,0.7,1.6
		c0.7,0.5,0.4,1.8-0.3,2.4c-0.65,0.465-1.724,1.167-2.114,0.303c-0.526,0.112-2.984,0.997-2.984,0.997l0.899,2.7l3.601-1.7l-0.5-1.5
		c0,0,1.399-0.2,2-0.5c0.6-0.3,1-2.3,1-2.3s11.3,0.7,15.5,0.2c4.199-0.5,9.8-2.4,11.699-2.9c1.9-0.5,16.7-5.5,17.601-5.6
		c0.899-0.1,2.1,0.9,0.1,1.6c-2,0.6-5,1.6-5,1.6l-0.399,2.8c0,0,2.1-2.3,2.6-2.8c0.5-0.4,0.4,0,0.4,0.4c0,0.4-0.601,2.9-1,3.7
		c-0.301,0.8-1.101,0.7-1.101,0.7v0.5c0,0,1.601-0.4,2.5-0.8c0.9-0.3,2.8-0.9,2.8-0.9v-0.4c0,0-1.399,0.4-1.3,0.1
		c0.101-0.3,0.601-3.1,0.7-3.5c0.1-0.4,0.4-0.7,0.8-0.8c0.3-0.1,0.8,0.6,0.8,1s0,1.1,0,1.1l1.301-0.3v-0.3l0.6-0.1l0.3,0.6
		c0,0,0.091,0.066,0.214,0.142c0.046-0.191,0.201-0.864,0.286-1.542c0.101-0.8-0.1-0.7-0.2-0.6c-0.1,0.2-0.5,0.8-0.8,0.9
		c-0.3,0.1-0.3,0.1-0.3,0.1s0.4-0.6,0.4-1.1s-0.4-1.1-0.4-0.8s-0.4,0.4-0.7,0.6c-0.3,0.2-0.3,0.2-0.3,0.2s0.4-0.8,0.4-1.2
		s0-0.7-0.301-0.6c-0.3,0.1-0.699-0.3-0.6-0.6c0.1-0.4-0.8-0.1-0.5-0.8c0.3-0.7,0.8-1,0.8-1s-2,0-2.6,0.3c-0.7,0.3-2,1-2.8,1.1
		c-0.801,0.2-0.601-0.5-0.101-0.8c0.5-0.3,2-1.4,2-1.4s-0.6-0.2-0.899-0.2c-0.301,0-2.2,0.9-3,1.4c-0.801,0.6-2.4,1.7-3.301,2.2
		c-0.899,0.5-1.3,0.5-1.899,0.6c-0.5,0.1,0.5-0.9,1-1.3s2.1-1.8,2.5-2.2c0.5-0.4-0.5-0.1-0.8,0.2c-0.301,0.3-3.9,3-4.4,3.3
		c-0.5,0.3-1.4,1-2.1,1.2s-1.601,0-1.601-0.3c0.101-0.3,0.7-0.9,1.101-1.4c0.399-0.5,3.1-2.6,3.199-2.7c0.101-0.1-0.1-0.3-0.5-0.2
		c-0.3,0.1-2.8,2.1-3.3,2.2c-0.5,0.2-1.2-0.1-1.6-0.4c-0.5-0.3-0.5-0.9,0.1-1.3c0.601-0.5,3.2-2.4,3.7-2.8c0.6-0.4,1.1-1.4,1.3-1.3
		c0.2,0.1,0.5,0.6,0.601,1.5c0.199,0.9,0.199,1.6,0.199,1.6h1c0,0,0.301-1,0.601-1.4c0.3-0.4,0.6-1.4,0.899-1.4
		c0.301,0,1.4-1.1,1.4-1.8c0-0.7,0.5-1.7,0.7-1.4c1,0,1,1.9,1.6,2.2c0.601,0.2,8.2,1.4,9.601,1.7c1.399,0.3,5,1.8,5.399,2.8
		c0.4,0.9,1.3,2.7,1.101,3.4c-0.2,0.7-0.4,0.6-0.801,1.1c-0.399,0.5-0.5-0.3-0.3-0.6c0.3-0.3,0.601-0.5,0.601-0.9
		c0.1-0.4-0.301-0.8-0.5-0.5c-0.2,0.4-0.601,0.5-0.7,0.5c-0.2,0,0.2-0.6,0.399-0.9c0.2-0.3,0.301-1.2,0-0.9
		c-0.3,0.3-0.5,0.4-0.699,0.5c-0.301,0.1,0.1-0.7,0-0.9c-0.101-0.2-0.7-0.1-0.801-0.3c-0.199-0.2-0.899-0.6-1.3-0.8
		c-0.399-0.2-0.899,0.3-0.6,0.4c0.3,0.2,1.3,1.2,1.6,1.7c0.3,0.5,0.9,2,0.601,2.5c-0.215,0.428-0.427,0.847-0.604,1.094
		C264.215,56.99,264.3,57,264.3,57s0.5,0.7,1.2,0.5s0.5-0.3,0.8-0.4c0.3-0.1,0.4-0.2,0.9-0.3c0.399-0.1,0.6,1,0.6,1s0.5,0.1,0.9,0.1
		c0.3,0,0.3-0.6,0.6-0.6c0.3,0,0.9,0.8,1.3,1.1c0.4,0.3,1,0.9,1.601,1.6c0.6,0.6,4.199,4.8,4.199,4.8l0.5,2.2c0,0-2.399-2.7-6-5.3
		c-3.5-2.7-10.7-0.4-12.9,0.2s-22.9,7.9-30.5,8.5c-7.601,0.5-21.3-0.5-23-0.602c-1.7-0.1-9.101-0.6-10.8-0.8
		c-1.7-0.2-4.9-0.9-4.9-0.9l1.3,3.299c0,0,20.601,2.199,29.7,1.899c9.1-0.399,11.2,0.601,29.5-5.4c16.9-5.6,16.8-4.7,19.8-3.8
		c1.9,0.6,4.101,3,5.101,3.8c0.899,0.8-0.2,2.5-1.4,1.3c-1.4-1.4-4.6-4.3-8.8-3.4c-4.3,0.9-7.5,2.7-7.5,2.7l1,1.6
		c0,0,5.899-2.8,8.2-2.2c2.399,0.6,5,1.6,5.899,3.4c0.9,1.8,2.7,2.8,4.4,1.5c1.7-1.301,1.899-3.5,2-4.2c0.1-0.7-0.4-3.398-0.4-3.398
		s1.2,1.7,1.5,2c0.3,0.3,1.3,1.2,1.3,1.2l-0.399,0.4c0,0-0.7,0.2-0.9,0.7c-0.2,0.5,0.7,2.3,0.7,3.3c0,0.9,0,1.699,0,1.699l0.8,1.398
		c0,0,1.7,0.102,2.601,0.199c0.899,0.104,2.5,0.898,3.899,0.199c1.4-0.699,1.101-1.5,1.101-1.5l0.899-1.398
		c0,0,4.101,1.398,5.5,1.602c1.4,0.201,5.5,0.602,6.5,0.5s1.5-0.898,1.7-1.602c0.2-0.697-0.2-1.301-0.2-1.301l3.4-2.1
		c0,0,1.6,0.4,2,0.2c0.399-0.2,1.399-1.4,1.699-1.9c0.2-0.4-0.199-2-0.199-2l1.199-0.9c0,0-0.103,2.4-0.103,3.5
		c0,1.199,0.399,2,1,2.5c0.603,0.5,3.5,1.698,4.7,0.601c1.2-1.1,4.603-4.801,8.3-3.801c3.7,0.899,6.103,2.2,6.103,2.2l1.301-2.2
		c0,0-5.801-3-8.399-2.7c-2.601,0.4-6.398,1.8-7.698,3.7c-0.603,0.8-3.103,0.1-1.603-1.2c1.399-1.2,6.301-5.2,9.899-4.5
		c4.2,0.8,20.101,6.2,21.897,6.7C353,72.6,365.9,74,370.4,74.4c10.197,0.898,26.8-1.9,26.8-1.9l3.101-3.898
		C400.3,68.6,394.3,69.8,391.8,70z M355.6,58.5c-0.397,0.5-1.6,1.1-1.897,1.3c-0.199,0.2-0.8,0.4-1,0.4c-0.199,0-1.603-0.4-2-0.6
		c-0.399-0.2-0.5-0.6-0.5-0.6s1-0.2,1.301-0.4c0.3-0.2,0.5-0.6,0.199-0.7c-0.3-0.1-1-0.6-1.199-0.6c-0.2,0-1,0.3-1.399,0.4
		c0,0-1.398,0.4-2.198,0.3c-0.802-0.1-14.103-4.2-14.399-4.3c-0.2-0.1,0.602-0.7,0.602-0.7l-0.199-0.5l-1.301,0.7l-0.699-0.5
		l1.397-0.8l-0.199-0.5l-2.101,1.1l-1-0.3l2.399-1.2l-0.399-0.3l-3.399,1.3l-0.898-0.2l3.7-1.7l-0.7-0.3l-5.199,1.9l-1.2-0.1
		c0,0,0.803-0.5,1.2-0.7c0.399-0.2,3.399-1.2,4-1.8c0.602-0.5,0.8-1.4,0.8-1.4l1.302,0.4c0,0,2.101-1.1,2.5-1.4
		c0.5-0.3,1.398-0.8,1.398-0.8v-1.7l2.5,0.3c0,0,0.8-0.6,1-0.7c0.3-0.1,0.8-0.1,0.8-0.1l0.103-1.6h0.897l-0.199,1.8l0.302,0.3
		c0,0,0.101-0.6,0.198-0.8c0.102-0.2,0.5-1.3,0.5-1.3l0.699,0.2c0,0-0.199,0.9-0.3,1.2s-0.101,1-0.101,1l0.3,0.2
		c0,0,0.397-1,0.5-1.3c0.101-0.3,0.3-0.7,0.3-0.7l0.7,0.3c0,0-0.3,1.3-0.3,1.6c0,0.3,0,0.6,0,0.6l0.3,0.2l0.8-1.5l0.5,0.5l-0.5,1.4
		l0.2,0.2c0,0,0.3-0.4,0.397-0.6c0.103-0.1,0.399-0.4,0.399-0.4l0.5,0.4c0,0-0.5,0.8-0.6,1.1c-0.2,0.3-1.103,2-1.303,2.4
		c-0.3,0.4-0.697,1.2-0.697,1.2l-0.603-0.4c0,0,0.399-0.8,0.5-1.2c0.103-0.4,0.199-0.7,0.199-0.7s-0.699-0.5-0.8-0.6
		c-0.103-0.1-0.399-0.2-0.399-0.2S341,48.6,341,48.9c0,0.2,0,0.3,0,0.3h-0.699c0,0,0.103-1.5,0.103-2s-0.103-1-0.2-1.1
		c0-0.1-0.603-0.4-0.603-0.4l-0.697,0.5c0,0,0.197,0.9,0.3,1.2c0.101,0.3,0.2,1,0.101,1.3c-0.101,0.3-0.2,0.8-0.2,0.8l-0.397,0.1
		c0,0,0.101-1.4-0.103-1.8c-0.101-0.4-0.197-0.7-0.3-0.8c-0.101-0.2-0.101-0.4-0.101-0.4l-1,0.5c0,0,0.2,0.6,0.2,0.9
		c0,0.4,0,0.8-0.103,1c-0.101,0.2-0.2,0.8-0.2,0.8H336.5c0,0-0.1-1.3-0.1-1.5c0-0.3,0.1-0.9,0.1-0.9l-0.899,0.5
		c0,0,0.303,0.6,0.2,0.9c0,0.3-0.101,0.9-0.801,1.3c-0.699,0.5-1.1,0.6-1.1,0.6s0.3,0.6,0.5,0.7c0.197,0.2,0.8,0.5,0.8,0.5
		s2.3-1.6,3.601-1.3c1.3,0.3,2.103,0.9,2.699,1.6c0.602,0.7,1.602,1,1.9,1.1c0.3,0.1,3.8,1.4,4.5,1.5c0.697,0,1.897,0.3,2.5,0
		c0.6-0.3,1.5-0.7,1.897-0.7c0.399,0,1.199,0.2,1.8,0.9C354.8,55.7,356,58,355.6,58.5z M327.9,45.8c-0.2-0.2-0.399-0.7-0.399-0.7
		s0.6,0,1.199,0.8c0.5,0.7,0.2,1.9-0.399,2.4c-0.601,0.5-2.5,1-3.8,1c-1.2,0-1.2-2.9-1-3c0.199-0.1,0.399,0.8,0.8,1
		c0.2,0.4,0.7,0.6,2.5,0.1S328,46,327.9,45.8z M332.8,43.2c-0.101-0.3-0.2-0.7-0.2-0.7s0.603-0.1,1.103,0.9
		c0.601,1.2,0.101,1.5-1.7,2.6c-1.699,1.1-1.6,0.9-2.199,0.6c-0.601-0.3-1.101-1.6-1.101-1.9c0,0,0.7,0.5,0.897,0.7
		c0.399,0.2,1.303-0.5,2-0.8C332.3,44.2,332.9,43.5,332.8,43.2z M333.699,41.9l0.397-0.4l1.103,0.6c0,0,1.601-1.8,1.897-2.3
		c0.303-0.5,1.2-0.4,1.103,0.5c0,0.9-0.399,1.6-0.699,2.3c-0.301,0.7-1.601,0.9-2.5,0.4C334.1,42.4,333.699,41.9,333.699,41.9z
		 M347.8,51c-0.101,0.2-0.7,1.4-0.7,1.4l-1.197-0.6c0,0,1.1-1.6,1.3-2.1s1-2.2,0.897-2.2l0.7,0.7C348.8,48.2,347.9,50.8,347.8,51z
		 M349.4,51.2c0.101-0.3,0.697-1.8,0.697-1.8l0.603,0.2c0,0-0.399,1.4-0.5,1.8c-0.103,0.4-0.699,1.7-0.699,1.7l-0.801-0.2
		C348.699,52.9,349.199,51.6,349.4,51.2z M345.699,48.9c-0.3,0.6-1.103,1.9-1.103,1.9l-0.8-0.5c0,0,0.899-1.9,1.199-2.5
		c0.2-0.6,0.9-2.1,0.9-2.1l0.897,0.7C346.8,46.4,346.1,48.2,345.699,48.9z M357.6,56.1c-0.397-1.5-0.897-2.5-0.5-3
		c0.303-0.5,0.7-0.8,1.103-1c0.397-0.2,1.101-0.2,1.101-0.2s0.2,0.2,0.2,0.3c0,0.1-0.101,0.2-0.101,0.2s-0.7,0.3-0.803,0.3
		c-0.1,0-0.1,0.2-0.1,0.3s0.699,2.4,0.8,2.6c0.103,0.2,0.399,0.5,0.8,0.6c0.4,0.1,0.7,0.1,0.7,0.1s0.399,0.5,0.103,0.6
		c-0.303,0.1-1.5,0.5-2,0.7C358.4,57.8,358,57.6,357.6,56.1z M360.1,52.5c0-0.2-1.5-3.1-1.6-3.3c-0.101-0.2-0.301-0.1-0.4-0.1
		c-0.197,0-1.3,0.4-1.3,0.4s-0.3,0.1-0.397-0.1c-0.103-0.2,0.101-0.4,0.101-0.4s1.399-0.5,1.699-0.6c0.301-0.1,1.101-0.3,1.601,0.5
		c0.5,0.8,1,2.5,1.2,3c0.199,0.5-0.101,1.3-0.5,1.4c-0.398,0.1-0.801,0.3-0.801,0.3l-0.3-0.4c0,0,0.601-0.3,0.697-0.3
		C360.199,52.9,360.1,52.6,360.1,52.5z M361.6,60.8c0.103,0.2-0.3,0.5-0.5,0.6c-0.197,0.1-0.697,0.3-1.1-0.4s-0.601-1.6-0.101-2.2
		c0.5-0.6,1-1.1,1.397-1.5c0.399-0.4,1,0.4,0.899,0.3c0,0.3-0.302,0.5-0.5,0.7c-0.2,0.2-0.603,0.8-0.5,1.3
		C361.3,60.1,361.5,60.6,361.6,60.8z M362.4,59.7c-0.4,0.2-0.9-0.4-0.4-0.6c0.6-0.3,0.8-1.1,0.6-1.6c-0.197-0.6-1.197-2.2-1.197-2.2
		s-0.899,0.3-1,0l-0.2-0.4c0,0,0.601-0.4,1.2-0.6c0.5-0.2,0.8,0,1,0.1c0.197,0.1,0.897,1.7,1.3,2.6c0.3,0.9,0.3,1.6,0,1.8
		C363.4,59,362.8,59.5,362.4,59.7z M364.199,61.5c-0.199-0.3-0.103-0.5-0.3-1c-0.2-0.5,0.5-0.8,0.697-0.3c0,0,0.303,0.6,0.5,1.1
		C365.199,61.9,364.4,61.8,364.199,61.5z M375.1,59.8c0,0-0.5-1.9-0.6-3c-0.101-1.1-0.5-2.4-0.5-2.4s1,0.7,1.199,1
		c0.2,0.3,0.601,0.8,0.601,0.8s1.399-1.5,1.7-2.3c0.3-0.8,1.399-3.2,1.399-3.2l0.197-0.2l0.2,0.4c0,0,0,1.3,0,2.5
		c0,1.2-0.3,2.1-0.3,2.1s1.6-0.1,2.3-0.1c0.603,0,1.399,0.2,1.399,0.2s-1.603,1.9-3.3,2.8C377.698,59.3,375.1,59.8,375.1,59.8z
		 M383.5,62.3c-0.601-0.1-3-0.9-3-0.9s1.3,1.2,1.699,1.9c0.397,0.7,1.101,2,1.101,2l-0.3,0.2c0,0-1.801-2-2.601-2.5
		c-0.803-0.5-2.899-2.1-2.899-2.1s1.5-0.8,2.3-1.2c0.8-0.4,2.3-1.4,2.3-1.4l0.303,0.1l-1,1c0,0,2.397,1.7,3,2.2
		c0.601,0.5,0.8,0.8,0.8,0.8S384.1,62.4,383.5,62.3z M394.9,55.7c-0.103,0.3-1.103,1.7-1.603,2c-0.601,0.3-2,1.5-2,1.5
		s3,2,3.399,2.2c0.397,0.2-0.399,1-0.7,0.8c-0.3-0.2-4.899-2.3-5.199-2.4c-0.397-0.1-0.801-0.3,0.3-1
		C390.199,58.2,394.9,55.7,394.9,55.7z M386.5,56c0.399-0.5,4.1-1.9,4.1-1.9s-0.397,1.3-1.5,2.4c-1.1,1.1-3.6,3.1-3.6,3.1l1.899,1.1
		l0.3,1.2c0,0-1.8-0.8-2.603-1.3c-0.897-0.5-2.101-0.7-2.101-0.7s0.2-0.7,0.5-2.1c0.301-1.4,0.898-5.3,0.898-5.3l0.899,4.3
		C385.3,56.8,386,56.4,386.5,56z M391.4,46.5c1-0.1,2.897-0.2,2.897-0.2s-2.2,0.9-2.897,1c-0.603,0.1-2,1.3-2.5,1.4
		c-0.5,0.1-0.5-1.6-0.5-1.6S390.4,46.6,391.4,46.5z M387,43.3c0,0,1.8-2.6,2.1-3.4c0.4-0.8,1.4-1.9,1.4-1.9s-0.5,2.3-0.601,3.2
		c-0.2,0.9-1,2.5-1,2.5s3.397-0.2,3.697-0.2c0.2,0-1.697,0.7-2.101,1c-0.4,0.3-2.8,2-3.399,2c-0.601,0-1.101-0.4-1.697-1.2
		c-0.7-0.7-1.603-2.3-1.7-2.8c-0.103-0.5-0.103-1.2-0.103-1.2L387,43.3z M375.6,45.6c0.2-0.5,0.103-1.4,0.2-2.2
		c0.103-0.7,0.2-1.3,0.8-1.5c1.2-0.5,1.803,1.5,1.803,1.5s1.101-0.4,1.601-0.4c0.601,0,0.699,1.3,0.699,1.3s1.2-0.3,1.7,0
		c0.5,0.3,0.101,1.4,0.397,1.3c0.3,0,0.8-0.2,1.603,0.1c0.8,0.2-0.103,1.4,0.5,1.4c0.601,0,1.101,0.2,1.197,0.7
		c0.103,0.5-0.6,0.9-0.1,1.1c0.5,0.2,0.199,1-0.601,1.3c-0.803,0.2-1.7,1.4-1.7,1.4l-1-0.3c0,0,0.5-0.8,0.801-1
		c0.199-0.2,1.199-0.8,1.199-0.8l-0.5-1.1c0,0-0.603,0.8-1,1.1c-0.399,0.4-1.699,1.2-1.699,1.2l-0.5-0.3c0,0,1.399-1.4,1.699-1.7
		c0.301-0.4,0.801-1,0.801-1l-0.9-0.5c0,0-0.3,0.7-0.6,1c-0.301,0.3-1.5,1.5-1.5,1.5l-0.4-0.1c0,0,0.4-1.3,0.803-1.7
		c0.397-0.4,0.697-1.8,0.697-1.8l-0.5-0.2c0,0-0.397,0.8-0.8,1.4c-0.5,0.6-1.7,1.8-1.7,1.8l-0.5-0.3c0,0,0.5-1.3,0.803-1.7
		c0.3-0.5,1-1.7,1-1.7l-0.603-0.2c0,0-0.7,1.1-1,1.6c-0.2,0.5-1,1.3-1,1.3l-0.601-0.1c0,0,0.601-1.1,0.8-1.4
		c0.2-0.4,0.801-1.6,0.801-1.6l-0.601-0.3c0,0-0.103,0.5-0.399,1.1C377,46.4,376,48,376,48l-1.4-0.3
		C374.6,47.7,375.4,46.2,375.6,45.6z M373.9,49.2c2,0.3,3.601,1.5,3.897,2s-0.397,0.3-0.397,0.3l-0.803-0.3c0,0-0.5,0.7-0.8,1
		c-0.301,0.3-0.301,0.6-0.301,0.6l-1.699,0.1l-1.2,1l0.803-1.7l-0.803-0.4l-0.8,1.4l-0.301-0.6l0.2-1.6v-0.1H370.1
		C370.1,50.9,371.9,48.9,373.9,49.2z M370.199,40.6c0,0,0.301,0.1,0.5,0.5c0.2,0.4,0.2,0.2,0.7,0.6c0.5,0.3,1.101,2.4,1.397,3.1
		c0.199,0.7,0.399,1.8,0.199,2.1c-0.199,0.2-1.199,0.6-1.899,0.6c-0.697,0-0.3-0.7-0.3-1.3c0-0.7-0.397-3.5-0.601-3.9
		C370,41.9,370.1,40.9,370.199,40.6z M358.199,45.3c0.301,0,0.397-0.5,0.601-0.7c0.2-0.2,1.603-1.2,3.3-1.8
		c1.7-0.6,3.603,0.9,4.4,1.2c0.699,0.4,1.6,5.3,1.899,6.7c0.397,1.4,2.897,6.7,3.197,7.2c0.303,0.5,1.803,1.6,1.803,1.6
		s0.197,1,0.5,1.6c0.3,0.6,2.3,3.8,2.601,4.6c0.3,0.9,0,1-0.5,0.7c-0.4-0.3-2.301-2.9-2.4-3.1c-0.1-0.3-0.697-0.4-0.5,0.1
		c0.103,0.5,0.603,1.7,0.803,2.1c0.197,0.4,0.897,2.1,0.897,2.1s0,0-0.8-0.1c-0.9,0-2.4-1.3-3.5-2.4c-1.101-1.1-0.9-1.8-0.601-2
		c0.3-0.2,1.5-0.8,1.5-0.8l-0.2-0.6c0,0-1.8,0.5-3,0.3s-0.603-1.2-0.3-1.3c0.397-0.1,0.697-0.2,1-0.2c0.3,0,0-0.6-0.2-0.8
		c-0.2-0.2-0.7-0.2-1.399-0.2c-0.7,0-0.8-0.6-0.3-0.8c0.399-0.2,0.899-0.6,0.899-0.6l-0.303-0.9c0,0-1-0.3-1.601-0.4
		c-0.602-0.1-0.602-0.6-0.3-0.8c0.3-0.2,1.2-0.7,1.2-0.7l-0.2-1.4c0,0-0.603,0-1.3,0.1c-0.603,0-0.803-0.7-0.5-0.9
		c0.3-0.2,1.397-0.9,1.397-0.9l-0.301-0.9c0,0-1.199,0-1.8,0.1c-0.603,0.1-0.7-0.4-0.5-0.7c0.199-0.3,1.8-1.5,1.8-1.5l-0.102-0.7
		c0,0-1.5,0.7-2.198,0.9c-0.603,0.3-0.302-0.8,0-1.1c0.3-0.4,2.198-1.3,2.198-1.3l-0.101-0.7c0,0-2.7,0.4-3.7,0.4
		c-1-0.1-1.5-1.6-1.5-1.6s-1.199,0.8-1.897,1c-0.603,0.1-0.5-0.1-0.603-0.4C357.6,45.7,358.1,45.1,358.199,45.3z M357.4,48
		c0,0-0.103-0.5-0.899-0.5c-0.601,0.1-1.301,0.1-1.301,1.5c-0.103,1.4,1.801,1.6,1.801,1.6s0,1-2,0.5c-0.801-0.2-1.5-0.9-1.5-2.6
		s2-2.2,3.1-2.1C357.701,46.5,357.6,47.9,357.4,48z M344.9,17.5c0.197-0.3,0.8-1.4,1.101-1.8c0.3-0.4,0.6-2.6,0.6-3.1
		s0.5-1.2,0.603-1.4c0.101-0.3,0.7-1.4,0.801-1.4c0.199,0,0.399,0.7,0.199,1c-0.103,0.3-0.199,0.5-0.199,0.6s1.199,3.7,1.3,4.2
		c0.103,0.4,0.103,1.5-0.101,1.8c0,0-0.603,1.3-1.5,1.7c-0.603,0.5-1.3,0.1-2.2-0.4C344.699,18.2,344.699,17.8,344.9,17.5z
		 M342.9,12c-0.2,0-0.399-0.1-0.603-0.5c-0.2-0.5-0.601-0.8-0.5-1.1c0-0.3,0.5-0.9,0.603-1.2c0-0.2-0.103-0.6,0.101-0.7
		c0.1-0.1,0.5-0.1,0.699-0.2c0.2,0.2,0.5,1.1,0.5,1.3c0,0.3,0.397,2.7-0.103,2.6C343.1,12.1,343,12,342.9,12z M333.866,16.396
		c-0.073-0.033-0.138-0.066-0.167-0.097C333.729,16.272,333.787,16.317,333.866,16.396c0.416,0.186,1.409,0.388,1.833,0.304
		c0.5-0.1,2.101-1.4,2.601-1.6c0.603-0.2,2.103-0.4,3,0c0.899,0.4,1.3,0.5,1.399,0.6c0.2,0.1,0.5,0.3,0.801,0.5
		c0.3,0.2,0.5,0.5,0.5,0.5s-2,0-2.5,0c-0.601,0-3.9,0.3-4.4,0.5c-0.5,0.1-2,0.2-2.397,0
		C334.41,17.056,334.071,16.602,333.866,16.396z M328.3,28.6c-0.2,0.6-0.2,1-0.601,1.8c-0.399,0.8-1.3,0.9-2.103,0.9
		c-0.8,0-2.197,0.1-2.697,0.4c-0.5,0.3-0.803,0.5-0.7-0.1c0.2-0.6,0.5-0.9,0.8-1.2c0.301-0.3,1.5-0.7,2.399-1.1
		c0.898-0.4,0.898-1.2,1.198-1.7l2.2-0.2C328.8,27.4,328.5,28,328.3,28.6z M328.9,25.8c-0.603,0-1.603-0.2-2.303,0.6
		c-0.697,0.7-1,0.2-1.197-0.1c-0.2-0.3-0.803-1-1-1.5c-0.2-0.5,0.197-0.8,0.101-0.8c0.199-0.1,0.8,0.8,1,1.1
		c0.199,0.3,1.399-0.4,1.8-0.5c0.399-0.2,0.8-0.4,1.399-0.1c0.5,0.2,1.397,0.6,1.397,1S329.5,25.8,328.9,25.8z M336.4,24.8
		c-0.303-0.6,0.101-3.2,0.101-3.2l-0.7-0.2c0,0,0.103,0.4-0.3,1.3c-0.4,0.9-0.9,1.3-0.9,1.3s0-1.3-0.1-1.8C334.4,21.7,334,21,334,21
		l-1,0.4c0,0,0.3,2.7,0.199,3.3c-0.103,0.6-0.3,1.6-0.8,1.7c-0.603,0.1-0.899,0.1-0.899-0.2c0-0.3,0.5-0.5,0.699-0.9
		c0.2-0.4,0.101-1.6,0.101-1.6s-0.601,1.2-1,1.3c-0.397,0.1-0.5-0.2-0.5-0.5s0.103-0.6,0.103-1c0-0.5-0.603-1-0.803-0.7
		c-0.197,0.3-0.6,0.5-1,0.7c-0.3,0.1-0.897-0.2-1.6-0.1s-1.301,0.2-2-0.1c-0.7-0.3-1.101-0.9-1.2-1.6c-0.101-0.7,0.399-1,0.8-1
		c0.401,0,2.103-0.1,2.5-0.3c0.4-0.3,0.9-1.2,1-1.6c0,0,0.603-0.2,1.4,0.1c0.5,0,1.5,0.3,2.399,0.4c0.897,0.1,1.697,0.1,2.101,0
		c0.399-0.2,0.8-0.8,1-1.2c0.199-0.4,0.6,0.2,0.5,0.4c-0.101,0.2-0.101,0.6,0.399,0.4c0.601-0.2,0.5-0.6,0.697-0.7
		c0.2-0.2,0.5,0.2,0.5,0.2s0.303-0.2,0.5-0.4c0.2-0.3,4.5-0.2,5.2-0.2s1,0.7,1.5,1.4c0.5,0.6,1.3,1,2.103,1c0.8,0,1.5-0.1,2.3,0.1
		c0.801,0.2,1.301,1.8,1.2,2.7c-0.103,0.9-1.5,3.3-1.5,3.3l0.601,1.3c0,0,0.899-1.8,1.399-2.4c0.5-0.6,1.101,0.8,0.897,1.3
		s-1.601,3.3-1.601,3.3l0.397,1.5c0,0,1.5-2.7,1.7-3c0.3-0.3,1,0.4,0.8,1c-0.101,0.6-1.897,4.9-1.897,4.9l0.397,1.6
		c0,0,1.603-3.2,1.803-3.9c0.3-0.7,1.197-0.3,1,0.4c-0.2,0.7-3.103,6.4-3.303,6.8c-0.197,0.3-0.697,0-0.8-0.2
		c-0.101-0.2-0.3-2.3-0.3-2.3l-2-0.7l-2.7,1.2l-0.101-2.4l1-0.2l-0.103-1c0,0-2.199,0-2.8-0.1c-0.601,0-2-0.2-2-0.2l-0.101-0.7
		c0,0,2.198-0.2,2.897-0.5c0.7-0.3,2.899-1.6,2.899-1.6l-0.102-1.1c0,0-2.198,1.5-3.198,1.8c-1,0.3-3.7-0.1-3.7-0.1v-0.9
		c0,0,2-0.3,3.301-0.5c1.3-0.2,3.199-2,3.199-2l0.898-2.7c0,0-2.199,2.3-3.5,3.3s-4,0.6-4.199,0.6c-0.102,0-0.699-0.7,0.102-0.8
		c0.8-0.1,3.601-0.6,4.601-1.3c1-0.6,2.102-2.9,2.102-2.9l-0.899-0.4c0,0-0.3,0.7-1.101,1.9c-0.8,1.3-2.399,1.4-4.3,1.5
		C338.3,26.9,336.6,25.3,336.4,24.8z M332.3,33.9c0-1.2,0-2.2,0-2.2s2.2,3.1,2.3,3.3c0.103,0.2,1.603-0.3,1.803-0.7
		c0.197-0.4,1.8-1.9,1.8-1.9l1,0.7c0,0,0,0.9-0.103,1.3C339,34.8,338.9,36,338.9,36l0.601,0.4c0,0,1.399-0.8,1.699-1
		c0.301-0.2,1.301-0.9,1.301-0.9l0.899,0.2l0.5,3.8l0.897,0.2l3-1.8l1.199,0.9l-0.699,2.8l0.603,0.5l3-0.8l1,0.5l-0.9,2.7l0.8,0.7
		l3.2-0.9l1.101,0.4C356.5,44.2,355.5,45,355,45.5c-0.5,0.6-0.801,1-0.801,1H353.8l-0.601,1l-1-0.6l1-1.3l-0.602-0.2l-0.801,0.8
		L351.1,46c0,0,0.699-0.9,0.802-1.2c0.197-0.3-0.5,0-0.7,0.1c-0.3,0.1-1,0.7-1,0.7l-0.399-0.3l1.3-1.1l-0.397-0.5L349.1,45
		c0,0-2.397-1.7-3.197-2.3c-0.803-0.6-2.899-1.6-3.603-1.9c-0.8-0.3-0.8-1.2-0.897-1.7c-0.103-0.5-1.303-0.5-1.303-0.5s0,0.8,0,1.3
		s-0.697,0.9-1.197,1s-0.103-0.5-0.103-0.5s1.103-1.8-0.7-2.1c-2.197-0.4-2.101,1.9-2.101,1.9S335.1,39.9,335.3,39
		c0.399-1.4,2.3-1.8,2.3-1.8l-0.3-0.8c0,0-1.2,0.4-1.397,0.6c-0.2,0.2-0.103-0.7-0.103-0.7l-0.801,0.2c0,0,0,0.5-0.1,0.7
		c-0.103,0.2-0.5,0.5-0.5,0.5l0.197-1.1l-0.697-0.4c0,0-0.2,0.5-0.303,0.8c-0.101,0.3-0.197,0.8-0.197,0.8l0.1-1.9l-0.5-0.7
		l-0.699,1.9C332.3,37.1,332.3,35.1,332.3,33.9z M332.199,39.3c1.601-0.6,2.2,0.5,2.397,1.1c0.103,0.1,0.103,0.2,0.103,0.2l-0.3,0.2
		c0,0-0.603-0.6-1.103-0.5c-0.5,0-0.801,0.4-1.7,1c-0.8,0.6-0.101,2-0.101,2l-0.5,0.2c0,0-0.602-1-0.699-1.8
		C330.199,40.9,330.4,40,332.199,39.3z M329,39.3l1.199-0.2l-0.699,1.5h-1.2L329,39.3z M329.6,42.6c0.303,0.4,1,1.3,1,1.3
		l-0.897,0.2c0,0-0.399-0.5-0.5-0.7c0-0.2-0.3-0.2-0.699,0c-0.399,0.2-1.301,0.6-1.7,0.8c-0.397,0.2-0.397,0.7-0.397,0.7l0.397,0.5
		L326.2,46c0,0-1.5-1.8-0.5-2.7c1-0.9,2-1.1,2.397-1.2C328.6,42,329.3,42.2,329.6,42.6z M325.699,38.9c0,0,1.101-0.1,1.397,0
		c0.303,0,0.603,0.3,0.5,0.5c-0.101,0.2-0.897,1.9-0.897,1.9l-1.899,0.9L325.699,38.9z M322.199,42.1c0.101-0.3,0.101-3.8,0.101-4.1
		c0,0,0.899,0.1,1.399,0.2c0.397,0,1,0.5,1,0.7c0,0.2-1.103,3.5-1.103,3.5l-1.5,0.1C322.1,42.5,322.1,42.5,322.199,42.1z
		 M324.199,44.4c0.601,0.8,1.101,2.1,1.101,2.1l-0.5,0.1c0,0-0.397-1.5-1-1.4c-0.601,0-2.7,0.6-3.2,1c-0.5,0.3-0.197,1-0.1,1.2
		c0,0.1,0.199,0.7,0.3,0.8l-0.5,0.2c0,0-0.897-1.8-0.897-2.3c0-0.6,0.601-1.4,1.3-1.8C321.4,43.9,323.6,43.6,324.199,44.4z
		 M320.5,37.4l0.1,5.3l-1,0.2c0,0-0.3-5.4-0.397-6.3L320.5,37.4z M319.1,49.4c0.303,0,0.9-0.1,1.9-0.4s1.3-1.4,1.399-1.8
		c0,0,0.3-0.1,0.5,1.4C323,50,321.799,50.7,321,51.1c-0.8,0.4-1.801,1-2.101,0.4C318.699,51.2,318.8,49.5,319.1,49.4z M191.4,46.2
		c-0.699,0.1-1.1,0-1.1,0l0.7-0.7c0,0-0.8-0.1-1.5-0.1s-0.8-0.2-0.8-0.2l0.899-0.7c0,0-0.399-0.1-1-0.2c-0.6-0.1-0.6-0.1-0.6-0.1
		l0.3-0.5c0,0-0.8-0.1-0.8-0.4c0-0.3,0.2-0.3,0.2-0.3s-0.9-0.5-1.301-1.3c-0.5-0.8-0.3-1.2-0.3-1.2s1.101,0.8,1.601,1.4s1,1,1.399,1
		c0.4,0,1.101,0,1.4,0.2c0.199,0.1,0.399,0.4,0.399,0.4s0.9,0.4,1.5,0.7c0.5,0.4,1.2,1.2,1.2,1.2S192.1,46.1,191.4,46.2z
		 M266.8,37.5c0.4,0.1,0.6,0.3,0.6,0.3s0.4,0.1,0.4,0.4c0,0.3-0.2,0.5-0.2,0.5s-0.1,1.1-0.5,1.1c-0.399,0-0.5-0.4-0.5-0.8
		C266.6,38.7,266.8,37.5,266.8,37.5z M266.4,42.6c0-0.4,0.601-1,0.7-1c0.3,0.1,0.2,0.2,0,1.3c-0.2,1.1-0.3,1.4-0.3,1.4
		s-0.6,0.1-0.7-0.2C266,43.8,266.4,43,266.4,42.6z M259,37.5c-0.8-0.8-1.9-2.6-2.2-3.1c-0.3-0.5-1.7-1.6-1.9-2.2
		c0,0,2,0.3,2.801,0.9c0.899,0.6,1.6,2.2,2.1,3.7S259.8,38.3,259,37.5z M248.8,34.6c0,0,1,0.8,1.8,1.2c0.9,0.4,1.4,0.7,1.4,0.7
		s0,0.8,0.1,1.5c0.101,0.7,1,2.5,1.101,2.9c0.1,0.4-0.101,1.2-0.101,1.5c0,0.3-0.2-0.3-0.7-1.1c-0.6-0.8-1.3-1.6-2.199-2.5
		c-0.9-0.9-1.4-2.4-1.5-2.8C248.6,35.5,248.7,35,248.8,34.6z M246.4,29.6c-0.6-0.4-2.399-0.9-2.399-0.9s0-0.7,0-1c0,0,1-0.6,1.6-0.7
		c0.5-0.1,1.101,0.2,2,0.7c0.9,0.6,1.7,2.4,2,3.6c0.3,1.2,1,1.4,1.5,1.9c0.5,0.4,1.3,1.7,0.9,1.7s-1.3-0.3-2.101-0.7
		c-0.8-0.4-0.899-0.8-1.1-1.6C248.5,31.8,246.9,30,246.4,29.6z M253.2,34.5c-0.101-0.8-0.601-0.9-1.101-1.8
		c-0.6-0.8-1.5-2.2-1.5-2.2c0.2-0.1,2.601,1.3,3.3,2c0.7,0.7,0.4,0.9,0.601,1.3c0.2,0.4,1.2,0.6,1.399,1.2c0.2,0.6-0.1,3.7-0.1,3.7
		s-0.7-0.7-1.2-1.3C254.1,36.7,253.3,35.3,253.2,34.5z M259.5,31.1c0.2,0.6,0.2,2.3-0.101,1.7c-0.3-0.6-1-1.4-1.6-1.8
		c-0.6-0.4-2.1-0.9-2.8-1.4s-0.9-2.8-0.601-3c0.4-0.3,1.7,1.1,2.5,1.4c0.7,0.3,0.9,0.4,1.101,0.7C258.2,29,259.3,30.5,259.5,31.1z
		 M259.9,25c0.9,0.1,0,0.8-0.899,0.9c-1.2,0.2-2.8-0.2-3.8-0.7s-2.7-1.8-3.4-2.8c-0.7-0.9-1.7-1.6-1.6-1.8c0.199-0.5,4,1.1,5.3,1.4
		c1.399,0.4,1.399,1.1,2.2,1.9C258.5,24.8,259,24.9,259.9,25z M249.1,16c0.101-0.4,0-1.1,0.101-1.5c0.199-0.5,2.3-0.4,3.199-0.3
		c1,0,1.2,0.6,1.9,0.9c0.7,0.4,0.6,0.8-0.1,1c-0.801,0.2-1.5,0.2-2.4,0.3c-0.9,0.1-2.1,0.8-2.8,0.7S249,16.3,249.1,16z M249,18
		c0.5-0.4,2.8-0.6,4-0.9c1.2-0.3,2.399,0.4,3.3,0.8c0.901,0.4,2.6,0.6,2.8,0.6c0.3,0.1,0,0.3-1,0.9c-1,0.5-1.899,0.5-2.899,0.5
		c-0.9,0-2.2-0.5-3.601-0.9c-1.399-0.5-3.1-0.1-3.2-0.5C248.3,18.2,248.6,18.3,249,18z M246.3,12c0,0.3-0.9,0.9-1.4,0.8
		c-0.5-0.1,0-1-0.1-1.4c-0.1-0.4-0.9-0.2-1.1,0.4c-0.2,0.6-1,1.4-1.4,1.5c-0.4,0.1-1.1,0.5-1.1,0.4c0.1-0.1-0.101-1.2-0.101-1.2
		s0-0.8,0.101-0.8c0.199-0.1,1.1-0.5,1.5-0.9c0.399-0.5,0.699-1,1.399-1C244.799,9.8,246.3,11.6,246.3,12z M241,10.3
		c-0.3,0.5-0.9,0.9-0.9,0.9s-0.2-0.8-0.6-0.8s-0.9,0.8-0.9,0.8s-0.399-0.2,0.3-1.4c0.7-1.2,1.601-2.1,2.101-2
		C241.7,8.1,241.3,9.9,241,10.3z M237,7.7c0.3-0.5,0.8-0.1,0.7-0.1l0.8-0.9c0,0-0.7-1.2-0.2-1.4c0.5-0.2,0.9,0.7,0.9,0.7l1.5-0.4
		c0,0-0.101-1.2,0.699-1.2c0.801,0.1,0.101,1.2,0.101,1.2l1,0.3c0,0,0.5-0.7,1-0.1c0.5,0.6-0.5,1-0.5,1s0.2,0.5,0.3,0.7
		c0.1,0.3,0.1,0.5,0.1,0.6c0.1,0.1,1.3-0.1,1.3,0.5s-1.2,0.1-1.4,0.2C243,8.9,242,9.5,242,9.5s0.3-0.4,0.399-0.9
		c0.101-0.5-0.1-1.7-0.899-1.9c-0.8-0.2-1.4,0.4-2.3,1.1c-0.9,0.7-1.9,2.8-1.9,2.8s-0.4-0.2-0.4-0.9c0-0.7,0.5-1.1,0.5-1.1
		S236.8,8,237,7.7z M232.4,8.6c0.6-0.4,1.6,0.3,1.8,0.8c0.3,0.5,0.6,1.4-0.301,1.9c-0.8,0.5-1.6,0.4-2.1-0.4
		C231.3,10.1,231.7,9,232.4,8.6z M225.7,13.9c1.199-2.2,2-2.1,3.1-2.1c1.1-0.1,2.1,0.4,2.6,0.6c0,0.7,0,0.9,0,0.9s-2.5-0.6-3.5-0.2
		s-1.3,1.9-0.9,2.4c0.399,0.5,2.399,1.7,2.399,1.7S224.5,16.2,225.7,13.9z M230.2,14.8c0.3,0.5-0.2,1.1-0.9,1.3
		c-0.7,0.2-1.9-0.6-1.6-2c0.3-1.4,2.699-0.2,3.1,0C230.8,14.1,229.9,14.3,230.2,14.8z M231.4,32.2c-0.3,0.5-1.1,0.5-2.5-0.5
		c-1.399-0.9-0.8-2-0.6-2.2c0.2-0.3,1.1,0.1,1.4,0.2c0.399,0.1,0.8,0.2,1.399,0.6C231.6,30.7,231.7,31.7,231.4,32.2z M235.2,34.3
		c-0.801-0.3-0.5-1.7,0-1.6c0.5,0.1,0.8-0.2,2.8-1.3c2.1-1.1,2.6-2.7,2.7-3.5c0.1-0.8-1.2-3.1-1.4-3.4c-0.2-0.3-1.6-0.2-1.2,0.6
		c0.3,0.8,0.2,1.6,0,2.3c-0.2,0.6-2.5,2.5-3.399,3.1c-1,0.7-2.301,0-2.601-0.7c-0.3-0.7,0.4-2.1,0.7-2.5c0.3-0.4,0.8-0.7,1.5-0.8
		c0.7-0.1,0.9-1.2,0.9-1.5s-1.7-0.7-2.301-0.7c-0.6,0-1.6,0.2-1.6,0.2V25c0,0,1.4,0,1.7,0s1.3,0.5,1,0.5s-2.7,0.4-3.601,0.7
		c-0.899,0.2-2,1.6-2,1.6s0.301-1.8,0.4-2.1c0.1-0.3,0.4-1.2,0.7-1.5c0.3-0.4,0.399-1-0.101-0.7s-2.5,1-2.5,1s1.4-2.9,1.9-3.6
		c0.399-0.7,1.5-1.5,1.5-1.5s0-0.2-0.101-0.4c0-0.2,0.9-1,1.101-1.7c0.2-0.8-0.5-2.3-0.601-2.5c0,0,1.2,0.1,1.601,1.1
		c0.5,0.7,0.399,1.2,0.399,1.2l0.5-0.1c0,0,0-0.4,0.101-0.7c0.1-0.3,0.1-1.4,0-1.8c-0.101-0.5-1-1.6-1-1.9c0-0.4,0.899-0.2,1.6,0.2
		c0.7,0.4,1,1.1,1.101,1.7c0.1,0.6-0.3,1.9-0.3,1.9l0.8-0.1c0,0,0.1-1,0.2-1.4c0.1-0.3,0.199-0.7,0.399-1.6c0.2-0.9-0.6-1.8-0.6-2.1
		c0-0.3,0.8,0.1,1.5,0.6c0.6,0.5,0.3,2.5,0.3,3.1c-0.101,0.6-0.8,1.6-0.8,1.6l0.399,0.1c0,0,1.5-2.1,1.8-2.6
		c0.301-0.5-0.1-1.9,0-2.2c0.101-0.3,0.4-0.8,0.801-0.3c0.399,0.5,0.399,2.8,0.3,3.3c0,0.5-1.5,2.2-1.5,2.2h0.7
		c0,0,0.199-0.5,0.5-0.9c0.3-0.5,0.8-0.9,1.5-1.3c0.8-0.4,2.1-0.5,2.5-0.7c0.399-0.3,0.399-0.9,0.8-0.9c0.399-0.1,0.3,0.6,0,1.6
		c-0.2,1-0.9,0.9-1.601,1.4c-0.699,0.5-2.399,1.6-2.399,1.6l0.8,0.7c0,0,1.601-1.4,2.4-1.9s1.8-0.7,2.399-0.9c0.601-0.3,1-1.6,1.2-2
		c0.2-0.4,0.8,0.3,0.9,0.7c0.1,0.4,0.1,0.8,0,1.6c-0.101,0.8-1.601,2-2.2,2.4c-0.601,0.4-3.101,1.7-3.101,1.7l0.4,0.9
		c0,0,1.1-1,3.1-1.5s3.4,1.8,4.2,3.3c0.8,1.6,2.601,2.9,2.8,2.9c0.2,0,0.601,0.5,0.101,0.6c-0.4,0.2-0.9,0.1-1.7-0.4
		c-0.9-0.6-3.6-2.7-4.2-2.8c-0.7-0.1-2.899-0.1-2.899-0.1l0.399,0.9c0,0,0.601-0.2,1.601-0.1c1,0.2,2,1.3,2.699,2.3
		c0.7,1,2.2,2.5,2.4,2.6c0.3,0.2,0.8,0.4,0.8,0.6c0,0.2-0.899,0.2-1.6-0.1c-0.7-0.3-2.4-2-3.601-2.7c-1.199-0.8-2.399-0.1-2.699,0
		c-0.301,0.1-0.601,0.2-0.601,0.2s-0.1-0.3-0.3-1.1c-0.2-0.8-2.2-3.3-2.8-3.7c-0.7-0.4-1.7-0.3-1.101,0.1c0.601,0.5,3,4,3,5.5
		s-2.3,4.7-3.399,5.7S236,34.6,235.2,34.3z M236.8,29.6l1-0.8v2.3L236.8,29.6z M241.6,39.5c0.101,0.9,0.5,1.2,0.101,1.9
		c-0.4,0.7-1.801,1.4-1.801,1.4s0.301-0.7,0.101-2.1c-0.3-1.4-1.3-3.4,0.1-4.9s3.101-2.1,3.101-2c-0.2,0.3-0.9,2.3-1.2,3.1
		C241.7,37.7,241.5,38.6,241.6,39.5z M235.7,49.6c-0.9,0.4-1.9,0.6-2.301,0.6c-0.399,0,0.801-1.4,1.2-1.9
		c0.4-0.5,1.101-1.2,1.601-1.6c0.5-0.4,1.199-1.4,1.6-1.8c0.401-0.4,0.6-0.7,1-0.9c0.4-0.2,0.7,0,0.8-0.1c0,0.5-0.6,2-1.2,2.8
		C237.7,47.6,236.6,49.2,235.7,49.6z M236,53.5c0,0,0.399-2.6,0.899-2.4C237.4,51.3,236,53.5,236,53.5z M230.4,52.6
		c0.101-0.3,1-1.7,1.2-2.1c0.2-0.4,0.7-0.6,0.7-0.6c0.3,0.2,0.2,0.5,0.1,0.7c-0.199,0.2-1,2-1.399,2.4
		C230.6,53.4,230.3,52.9,230.4,52.6z M230,50.8c-0.4,0.2-0.9-0.3-0.5-0.9c0.5-0.6,0.8-1.1,1.3-1.4s1.6-0.1,1.5-0.2
		c0.1,0.4-0.4,0.6-0.7,0.9C231.3,49.5,230.3,50.7,230,50.8z M232.5,52.2c0.1-0.3,0.7-0.4,1-0.4c0.399,0,0.399,0.7-0.2,0.9
		c-0.6,0.3-0.4,0.8-0.7,1.1c-0.3,0.3-0.7,0.1-0.7-0.3S232.4,52.5,232.5,52.2z M234.6,52.9c0.3-0.4,0.5-0.9,0.9-0.8
		c0.3,0.2,0.3,0.7,0,1c-0.3,0.3-1.101,1.2-1.101,1.6c-0.1,0.4-0.899,0.8-0.8,0.1C233.7,54.2,234.4,53.3,234.6,52.9z M234.7,38.3
		c0.199-0.1,1.6-0.7,2-0.9c0.399-0.3,0.199-0.9,0.5-1.2l1.8,0.3c0,0,0,0-0.2,1c-0.1,1.1-2.1,1.6-3,1.4
		C234.9,38.7,234.5,38.4,234.7,38.3z M230.3,42.7c0,0,0-0.1,0.1-0.1c0.301-0.1,1.101-0.5,1.801-0.5c0.899,0,1.5-0.9,2.3-1.2
		c0.8-0.3,1.3-0.8,2-0.7c0.7,0.2,0.899,0.3,0.899,0.3s-1.4,2.1-2.4,2.4c-1,0.3-1.5,0.4-2.7,0.4C231.1,43.3,230.3,42.7,230.3,42.7z
		 M229.9,46.2c0.601-0.1,1.101-0.5,1.601-0.8c0.5-0.3,2.6-0.8,3.6-1.1c1-0.3,2.7-1.5,2.7-1.5s0.1,0.3,0,1c-0.2,0.6-1.8,2.8-3.6,3.4
		c-1.5,0.5-4.7-0.1-5.4-0.5C227.9,46.2,229.3,46.3,229.9,46.2z M228.9,47.8c0.4,0.2-0.5,1.3-0.699,1.2
		C228,48.9,228.6,47.7,228.9,47.8z M204.5,30.2c0.6,0,3,0.8,3.5,2.8s0.899,3.3,0.899,3.3l0.801-0.2c0,0-0.2-0.6-0.4-1.4
		c-0.1-0.8-0.4-1.5-0.4-2c-0.1-0.5-0.8-1.5-0.8-1.5s1.3,0.3,1.7,1.5c0.3,0.8,0.6,2.7,0.6,2.9c0,0.2,0.5,0.2,1.2-0.4
		c0.7-0.6,2.2-0.8,5-1.1c2.8-0.3,4.9,0.1,6.601,1.1c1.899,1.1,2.6,5.5,2.5,6.3c-0.101,0.8-1.601,2.2-1.2,1.1
		c0.399-1.1-0.101-3.1-0.5-4.3c-0.4-1.2-1.8-2.6-3.9-2.8c-2.1-0.3-7,0.5-7.8,0.8c-0.8,0.3-2.2,2.1-4.2,2.7s-3.3-2-3-3.6
		c0.3-1.6,0.101-2.7-0.5-3.6c-0.6-0.9-3.3-0.8-3.899-0.8C200.7,31,203.3,30,204.5,30.2z M218.1,45.4c-0.7-0.3-3.8-1.2-4.899-0.7
		c-1.801,0.8-2.9,2.8-2.9,2.8l-0.1-2.2c0,0,1.3-1.4,2.399-1.6c1.101-0.2,2.3-0.6,3.8,0c0.801,0.3,2,1.4,2,1.4L218.1,45.4z
		 M218.4,46.6c0,0-3.8,3-4.699,3.8c-0.9,0.8-3.2-0.5-2.2-2.2c0.899-1.7,1.8-3.1,3.7-2.5C217.1,46.3,218.4,46.6,218.4,46.6z
		 M215.3,42.6c-0.9-0.1-3.3,0.4-3.7,0.7c-0.399,0.3-1.2,0.7-1.2,0.7l-1.1-0.5c0,0,0.5-0.3,0.3-0.7c-0.2-0.4-0.899-1.4-0.899-1.4
		s1.399,0.3,2.199-0.5c0.801-0.9,1.4-2.7,1.7-2.8c0.3-0.1,5.5-1.8,7.5-1.3c2.601,0.6,3.5,2.9,3.5,4.4c0,1.6-0.899,3-2.5,2.8
		C219.5,43.8,216.2,42.7,215.3,42.6z M203,37.2c-0.101-0.4,0.2-2.3,0.399-3.1c0.301-0.8-0.399-1.6-1.3-1.6c-0.899,0-2,0.1-3.5-0.4
		c-1.299-0.433-1.248-0.716-1.275-1.044C197.245,31.022,197.2,31,197.2,31l0.1-0.1c0.013,0.053,0.02,0.105,0.024,0.156
		c0.221,0.096,0.736,0.296,1.476,0.444c1.1,0.3,2.1,0.4,3.1,0.3c1-0.2,1.101,0.1,1.601,0.5c0.5,0.4,0.5,2.3,0.2,3.4
		c-0.301,1,0.8,2.9,0.8,2.9l-0.601,0.3C203.9,38.9,203.2,37.6,203,37.2z M203.8,40.5c1.2-0.3,2.3,0,2.8,0.3
		c0.601,0.3,1.601,1.1,1.9,1.5c0.3,0.5,0.6,0.9-0.4,1.5c-1,0.6-2.3,1.7-2.6,1.8c-0.3,0.2-0.4-0.1-0.4-0.1s1-1.1,1.2-1.5
		c0.2-0.4,0.3-0.6,0.3-0.6l-0.8-0.4c0,0-0.8,1.7-1,2c-0.2,0.3-0.5,0.3-0.4-0.1c0.101-0.4,0.9-2.3,0.9-2.3l-1,0.1c0,0-0.1,1-0.2,1.2
		c-0.1,0.1-0.2,0.9-0.2,0.9h-0.4l0.1-1.9l-0.6,0.5l-0.1,1.6c0,0-0.3,0.3-0.5,0.2c-0.199-0.1-0.199-1.9-0.199-2.4
		C202.2,42.2,202.5,40.9,203.8,40.5z M203.9,47.2c0.7,0.2,0.301,1.6-0.5,1.3C202.6,48.2,203.5,47.1,203.9,47.2z M203.1,45.5
		c0.5-0.6,1.601,0.3,0.9,0.9C203.4,47,202.7,45.9,203.1,45.5z M203.1,47c0,0.9-1.2,0.6-1.1-0.2C202,46.5,203,45.9,203.1,47z
		 M202.1,48.4c0.601-0.4,1.101,0.9,0.5,1.1C202.1,49.7,201.6,48.7,202.1,48.4z M198.5,51c0.6-0.1,1.1,1.5-0.101,1.4
		C197.3,52.4,197.9,51.2,198.5,51z M197.8,49c-0.5,0-0.7-1.1,0-1.2C198.4,47.8,198.3,49,197.8,49z M199.5,48.6
		c-0.4,0.6-1.101,0.1-0.8-0.5C198.9,47.7,200,48,199.5,48.6z M199.6,46.9c0.2-0.4,1.4,0.1,0.7,0.6C199.7,48,199.4,47.4,199.6,46.9z
		 M198.8,47.4c-0.5,0.3-0.8-0.4-0.2-0.8C198.9,46.4,199.3,47,198.8,47.4z M198.6,49.5c0.4-0.4,1.4,0,0.8,0.7
		C198.8,50.9,198.2,49.9,198.6,49.5z M200.1,50.5c0.5-0.1,0.5,1.1-0.2,1C199.2,51.4,199.3,50.6,200.1,50.5z M200.4,49.3
		c-0.6-0.1-0.699-0.9,0-1C201.2,48.3,201,49.4,200.4,49.3z M201.9,50.3c0.101,0.5-1.3,1.1-1.3,0C200.6,49.2,201.8,49.6,201.9,50.3z
		 M201.7,47.8c-0.301,0.6-1.101,0-0.9-0.4C201.001,47,202,47.3,201.7,47.8z M200.7,46.7c-0.7-0.3,0.3-1.2,0.8-1
		C202.1,45.9,201.4,47,200.7,46.7z M198.7,42.8c0.199-0.3,0.699-1.5,1.5-1.2c0.699,0.3,1.399,0.6,1.199,1.7
		c-0.199,1-0.3,1.9-0.699,1.6c-0.4-0.2-1.2-0.6-1.101-0.8c-0.2,0.1-0.2,0.5-0.2,0.5s0.7,0.5,0.9,0.7c0.1,0.2-0.3,0.8-0.7,0.7
		c-0.399-0.1-0.8-0.7-1.2-0.9C198,45,197.5,45.4,197.5,45.4s0.5,0.2,0.6,0.4c0.101,0.2-1,1-1.6,0.6c-0.601-0.4-0.7-1.8,0.1-2.4
		C197.4,43.5,198.6,43.1,198.7,42.8z M195.1,40.1c0.101-1.3,1-3.4,0.9-3.4c0,0.6,0.8,3.3,1,4.3s0,1.8-0.5,1.8S195,41.4,195.1,40.1z
		 M191.9,51.9c-0.199,0,0-0.9,0-0.9s-0.699,0.2-1.1,0c-0.4-0.1,0.2-0.4,0.2-0.4s-2.1-0.3-2.1-0.6s0.301-0.3,0.301-0.3l-0.7-0.6
		c0.2,0,4,0.3,4.399,0.3c0.5,0,1.2,0.4,0.9,0.8C193.5,50.6,192.1,51.9,191.9,51.9z M196.3,52.6c-0.4,0.2-2,0.7-2.6,0.6
		c-0.7-0.1-0.4-0.7-0.301-1.1c0.101-0.5,1.301-1.8,1.601-2c0.3-0.2,0.1-1,0-1.4c-0.2-0.4,0.1-0.8,0.399-1h1.801
		c0,0-0.101,0.6-0.101,1.1s0.8,0.9,0.8,0.9s-0.199,0.2-0.199,0.5c0,0.3,0.3,0.6,0.3,0.6s-0.2,0.4-0.4,0.6c-0.2,0.2-0.1,0.6-0.1,0.6
		S196.7,52.4,196.3,52.6z M199.2,55.1c-1,0-1.601,0.4-2.4,0.4c-0.799,0-1.1-0.2-1-0.5c0.1-0.3,1.7-2,1.7-2h1.1l-0.7,1.3l1.2-0.4
		c0,0,0.2-0.8,0.2-1c0.1-0.1,0.8-0.3,0.8,0c0,0.3,0,0.9,0,0.9h0.9c0,0-0.2-1.4-0.2-1.7c0-0.3,0.8-0.7,0.8-0.4c0,0.3,0.2,1.4,0.2,1.4
		l0.9-0.5l-0.6-1.6l0.5-0.7c0,0,0.601,0,0.601-0.1c0.1,0.1,0.5,0.2,0.899,0.6c0.4,0.4,0.101,0.5,0.4,0.8
		c0.3,0.3,0.399,0.8,0.399,0.8s0.4,0.4,0.301,0.8c-0.2,0.4-1.601,0.9-2.301,1.2c-0.6,0.3-0.699,0.4-1.199,0.5
		C201.2,55.1,200.2,55.1,199.2,55.1z M205.7,55.6c0,0.3-0.101,1.3-0.301,1.5c-0.199,0.2-0.5,0.2-0.5,0.2S205,56.1,205,55.7
		c0-0.4-0.601-0.2-0.601,0.1c0,0.3-0.6,0.5-0.8,0.1c-0.1-0.4,0-1.7,1.601-1.6c1.5,0.1,2.399,1.7,2.5,2.2c0.199,0.5,0.199,1.2,0,1.3
		c-0.2,0.1-1.4,0.1-1.4,0.1s0-1.7,0-1.9S205.7,55.3,205.7,55.6z M201.4,58.4c0.301-0.7,2-1.7,2-1.5c0.101,0.2,0.7,1,1.601,1.4
		c0.8,0.3,2.3,0.6,2.3,0.6s-2.6,1.4-3.5,1.8C203,61,201.1,59.1,201.4,58.4z M206.8,62.4c-0.7,0.6-1.5,1.3-2.1,1.5
		c-0.601,0.2-1.601-0.6-1.101-1.6c0.601-1,1.601-1.5,2.7-1.7c1.1-0.2,1.2-0.4,1.2-0.4l0.399-0.3C207.8,60.3,207.5,61.8,206.8,62.4z
		 M207.1,51.7c-1,0-0.8-0.3-1.2-0.4c-0.4-0.1-2.2-1.3-2.2-1.3l0.6-1c0,0,2.4,0,2.5,0c0.1,0,0.6-0.8,0.3-0.8c-0.3,0-2.2-0.1-2.2-0.1
		l0.1-0.7c0,0,2.2-0.4,2.399-0.4c0.2,0.1,0.601-1,0.2-0.9c-0.399,0-1.8,0.3-1.899,0.4c-0.074,0.074-0.471,0.201-0.637,0.303
		L205,46.9c-0.026-0.026,0.005-0.06,0.063-0.097L205.4,46.3c0,0,1.5-0.4,1.9-0.7c0.4-0.4,1.6-1.6,2-1.2c0.4,0.4,0.9,1.6,0.4,2.8
		C209.1,48.4,208,51.7,207.1,51.7z M209.2,57.9l-0.3,0.1c-0.199-0.4-1.5-4.5,0.601-4.5c2.1,0,3.2,1.5,3,2c-0.2,0.6-0.7,1-1.101,1.4
		c-0.399,0.3-0.5-0.2-0.5-0.5c0-0.3,0-0.5,0-0.8c0-0.2-0.8-0.2-0.8,0.2c0,0.4,0,2,0,2h-0.2c0,0-0.199-0.2-0.3-0.6
		c-0.1-0.4-0.399-0.1-0.399,0.1C209.2,57.5,209.2,57.9,209.2,57.9z M212.2,61.8c-1.5-0.3-2-1.6-2-1.9c0-0.4,0.399-0.2,0.8,0.1
		c0.3,0.3,1.899,1,2.399,1.2C213.9,61.4,213.7,62,212.2,61.8z M213.2,59.1c-1.301,0.5-1.9,0.2-2.7,0c-0.8-0.2-1.2-0.1-1.2-0.1
		s2.9-1.9,3.2-2.7c0.3-0.8,1.6-0.3,1.899,0.3C214.7,57.1,214.5,58.6,213.2,59.1z M230.2,60.4c-0.9,0.3-4,0.7-4,0.7l2.199-2
		l-0.199-0.6c0,0-3.601,1.9-4.9,2.3c-1.3,0.4-1.4-0.1-1-0.5c0.4-0.4,4.5-3.4,4.5-3.4l-0.2-0.6c0,0-3.7,1.1-4.7,1.8
		c-1,0.7-3.699,2.1-4.1,2.5c-0.4,0.3,1.2-2.1,2.5-3.2c1.3-1.1,5.2-3.2,5.2-3.2l-0.4-0.7c0,0-3.1,1.1-4.7,2.2
		c-1.6,1.1-4.399,2.8-5,3.6c-0.6,0.8,1.301-3,2.7-4.1c1.5-1,5.9-3.6,5.9-3.6l-0.6-0.6c0,0-4.8,2.2-5.699,2.8
		c-0.9,0.7-3.101,1.9-2.9,1.5c0.1-0.4,2.4-2.8,3.3-3.3s3.601-2.3,3.601-2.3l-0.2-0.6c0,0-3.101,1.2-4.9,2.4s-4.5,2.6-6.5,0.8
		c-2-1.8,0-4.1,0-4.1s-0.5,3.8,1.601,4c2.1,0.2,4.399-2.1,4.699-2.4C216.7,49.5,220.5,46,221,45.6s3.5-1.6,4.5,1.6
		c1,3.2,3.899,8.2,5.899,9.1c2.101,1,4.601,2.4,4.601,2.4S231.1,60.1,230.2,60.4z M237.2,54.7c-0.101,0.3-0.5,1.2-0.601,1.5
		c-0.2,0.3-0.3,0.5-0.6,0.4c-0.3-0.2-0.101-0.6,0-0.8c0.1-0.2,0.5-1.2,0.6-1.5c0.101-0.3,0.3-0.7,0.7-0.6
		C237.6,53.9,237.3,54.4,237.2,54.7z M238.8,55.9c0,0.3-0.1,0.8-0.5,0.7c-0.4-0.1-0.2-0.4-0.2-0.7c0-0.3,0.4-0.4,0.4-0.4
		C238.9,55.4,238.8,55.6,238.8,55.9z M244.2,41.5c-0.2,0.7-0.301,1.8-0.2,2.6c0.2,0.7,0.1,2.6-1.2,3.5c-1.3,0.9-2.7,1.8-2.9,2.1
		c-0.3,0.4-1.1,1.8-1.3,2c-0.3,0.2-0.7-0.2-0.7-0.6c0-0.5-0.1-1.5,0.101-1.9c0.2-0.4,2.5-4.6,2.6-5c0.101-0.4,1.101-1.7,1.5-2
		c0.4-0.3,0.7-0.9,0.8-1.3c0.101-0.4,0.801-1,1-1.1C244.5,39.9,244.4,40.8,244.2,41.5z M247.7,45.3c-0.101,0.6-2.101,4.8-2.301,4.9
		c-0.199,0.1,0-2.8-0.199-3.3c-0.2-0.5-1.101-2.3-0.5-3.5c0.6-1.1,0.899-1.5,1-2.1c0.1-0.6,0.199-1,0.199-1l0.2-0.2h0.601
		c0,0,0.3,1.8,0.5,2.4C247.4,43.1,247.8,44.7,247.7,45.3z M246.9,39.4c-1.5-0.2-2.399-0.5-3.199-1.7c-0.801-1.1,0.6-3.4,1-4
		c0.399-0.7-1-2.2-1-2.2l0.5-1.3c0,0,2-0.1,2.899,2.2c0.4,0.9,0.101,1.9-0.1,2.8c-0.2,0.9,0.7,2.1,1.1,2.8
		c0.5,0.8,1.601,1.2,1.4,1.3C249.3,39.4,248.4,39.6,246.9,39.4z M253.2,46.6c-0.301,0.2-0.801-0.2-1.301-1c-0.5-0.8-1.699-2.5-2-3.1
		c-0.3-0.6-1-2-1-2.2c0,0,0.5,0.2,2,1.1s1.9,1.9,2.2,2.4C253.3,44.3,253.5,46.5,253.2,46.6z M255.9,45.6c-0.1,0.4-0.699,0.2-0.8,0
		c-0.1-0.2,0-1.8-0.3-3c-0.3-1.2-0.6-2.3-0.8-2.6c-0.3-0.4-0.4-1.1-0.4-1.1s1.601,1.4,2.3,1.5c0.7,0.2,1.301,0.8,1.301,0.9
		C257.2,41.4,256,45.2,255.9,45.6z M259.9,45.5c-0.1,0.2-0.6,0-0.6,0s0-0.2,0-0.4c0-0.2-0.8-3.1-1-4.1c-0.2-1-0.3-1.4-0.3-1.6
		c0,0,0.399-0.1,0.899,0.2c0.4,0.2,1.5,1,1.801,1.1C261.1,40.9,259.9,45.3,259.9,45.5z M261.6,47.9l-0.8-0.3l0.1-1.7l1.2,0.8
		L261.6,47.9z M262.5,45.7c-0.3-0.1-0.7-1.2-0.9-2.1c-0.2-0.9,0.101-1.5,0.3-1.9c0,0,0.601,1,0.7,1.4c0.101,0.3,0.2,1.3,0.3,1.8
		C263.1,45.4,262.8,45.8,262.5,45.7z M261.4,37.5c-0.3-1.1-0.6-3-0.199-3c1.199,0,1.5,1.1,1.899,1.9c0.5,0.7,1.5,2.6,2,3.1
		s0.9,1.2,0.8,1.3c-0.1,0.1-0.7,0-1.399-0.1c-0.7-0.1-1.101-0.5-1.5-0.9C262.6,39.3,261.8,38.5,261.4,37.5z M265.2,43.1
		c-0.2,0.4-0.301,1.1-0.601,1.6c-0.3,0.5-0.7,0-0.6-0.4c0.1-0.4,0.5-1.6,0.6-1.9c0.101-0.3,0.601-0.3,0.601-0.2
		C265.5,42.3,265.4,42.6,265.2,43.1z M267.5,52.2c-0.3-0.3-0.601-1-0.8-1.5c-0.301-0.5-2.801-2-2.801-2.4c0-0.5-0.199-2.5,0.4-2.7
		c0.2,0,0.4,0.4,0.7,1s0.7,0,1-0.5c0.3-0.6,0.3-0.9,0.6-0.9c0.3,0,0.3,0.1,0.601,0.3c0.399,0.3,0.699,0.7,0.699,0.7s0.5,2.3,0.5,2.5
		c0,0.2-0.199,1.1-0.199,1.6s0.199,1.8,0.3,2C268.6,52.5,267.8,52.5,267.5,52.2z M317.6,28.7l-1.8,0.1l-0.397-0.7h3L317.6,28.7z
		 M315.5,23.8l4.3-2.5l-0.7,1.4l-3.601,1.6L315.5,23.8L315.5,23.8z M315.5,24.9l2.899-1.1L317.5,25l-2.2,0.5L315.5,24.9z
		 M319.699,26.8l-0.8,0.8l-4.2-0.5l-0.5-0.6L319.699,26.8z M313.699,16.9l0.5,7.6l-0.699,1l-0.5-7.6L313.699,16.9z M312.4,19.2
		l-0.103,3.5l-0.601-0.6l-0.103-2.2L312.4,19.2z M312,10.1c0,0.8-1.301,0.9-1.301,0C310.699,9.6,312,9.3,312,10.1z M309.6,7.2
		c0.4-0.3,1.4,0.4,0.9,0.9C309.9,8.7,309.1,7.6,309.6,7.2z M307.4,5.7c0.397-0.3,1.397,0.1,0.697,0.8C307.5,7.1,306.9,6.2,307.4,5.7
		z M305.9,5.9c0,0.7-1.102,0.9-1.199,0C304.7,5.3,305.8,5.2,305.9,5.9z M303.3,6.4c0.102,0.6-0.898,1-1.1,0.2
		C302.1,5.9,303.3,5.8,303.3,6.4z M308.6,8c2.4,2.2,0.9,5,0.303,5.8c-0.603,0.8-3.5,2.7-3.5,2.7l-0.602-0.4c0,0,2.603-2,3.2-3.5
		c0.6-1.6-1-3.7-3.3-3.4c-2.301,0.3-4.801,1.5-4.801,1.5l-0.199-0.3c0,0,0.897-1.1,1.5-1.7C302.1,7.7,306.3,5.9,308.6,8z
		 M293.2,14.7c4.6,0.1,9.3,1,12.397,3c1.102,0.7,0,1.8-0.5,1.5c0,0-4-3.2-12-3.1c-6.1,0.1-9.399,2.2-11.3,3.2
		c-1.901,1-2.3-0.8-1.7-1.1C280.4,18.1,285.6,14.6,293.2,14.7z M281,13.9c-0.4-0.8-0.2-2.7,2.3-3.2c2.6-0.5,4.4,3.6,4.4,3.6
		s-1.5,0.7-3.2,1.2S281.3,14.8,281,13.9z M293.1,6.3c1,0,2.3,0.3,2.3,1.9h-4.5C290.9,8.2,291.2,6.2,293.1,6.3z M293,4.2
		c1.3-0.1,1.7,1.6,0.2,1.6S291.8,4.2,293,4.2z M291.5,9c0,0,2-0.1,2.899-0.1c0.9,0,0.9,0.5,0.7,1.1c-0.1,0.6-0.399,0.9-0.399,0.9
		l-0.9-0.1c0,0,0-0.3,0-0.6c0-0.4-0.9-0.7-0.9,0c0,0.8-0.1,0.6-0.1,0.6l-1,0.1c0,0-0.2-0.4-0.3-0.9C291.3,9.5,291,9,291.5,9z
		 M295.1,13.8c-1.2,0.1-3.5,0-3.5,0s-0.8-2.2,1.5-2.2C295.4,11.6,295.4,12.9,295.1,13.8z M299.1,14.1c0,0,1.7-2.4,2.302-3.1
		c0.601-0.7,3.698-0.6,3.801,1.6c0.1,2.2-1.2,3.2-3,2.6C300.5,14.6,299.1,14.1,299.1,14.1z M301,5.3l0.5,2.1c0,0-0.101,0.3-0.3,0.1
		C301,7.3,300.8,7,300.8,7s-2,1.4-2.7,2.9c-0.397,0.7-1.7,3.9-1.7,3.9h-0.5c0,0,0.101-2.8,1.5-5C298.9,6.6,300.9,5.2,301,5.3z
		 M297,3l-0.1,3l-2.2-0.9l0.1-0.4L297,3z M295.8,1.5L294,3.6c0,0-0.5-0.4-0.9-0.4c-0.399,0-1.1,0.3-1.1,0.3l-1.6-2.3L295.8,1.5z
		 M289.5,2.7l2.1,1.7v0.5l-2.3,0.8L289.5,2.7z M285.2,6.9c0.1-0.4,0.8-1.7,0.8-1.7s2,1.2,3.3,3.1c1.3,2,1.7,5.6,1.7,5.6h-0.6
		c0,0-1.8-4.2-2.3-5C287,7,286,7.1,286,7.1s-0.3,0.1-0.5,0.3C285.4,7.6,285.1,7.3,285.2,6.9z M282.4,5.6c0.2-0.4,1.4-0.3,1,0.5
		C283,6.9,282.1,6.5,282.4,5.6z M280.6,5.8c0.3,0.9-1.1,1.2-1.2,0.1C279.4,5.3,280.4,4.9,280.6,5.8z M278.5,6.7
		c0.2,0.6-0.7,1.5-1.3,0.4C276.7,6.2,278.2,6.1,278.5,6.7z M274.8,11.1c-0.8-0.1-0.4-1.1,0.1-1C275.7,10.3,275.6,11.2,274.8,11.1z
		 M275.2,8.6C274.6,8,276,7.1,276.5,8C277,8.8,276,9.5,275.2,8.6z M276.3,12.3c-0.3-2.5,2.5-5.1,4.9-5.1c2.399-0.1,3,0.1,4.6,1.2
		l1.9,2.2l-0.2,0.3c0,0-4.101-2.5-6.8-1.4c-2.7,1.1-2.7,2.6-2.2,4s3,3.2,3,3.2l-0.6,0.3C280.9,17,276.6,14.9,276.3,12.3z
		 M275.2,20.1l0.6,0.9l-0.3,2l-0.7,0.7L275.2,20.1z M273.3,17.8l1.2,1.7l-0.601,5.1L273,24.3L273.3,17.8z M267.5,23.8l6,1.9
		l-0.4,0.6l-5-1.7L267.5,23.8z M269.2,26.4l-0.601-0.7l3.8,1.1L272,27.4L269.2,26.4z M269.4,29.4l-0.699-0.7l3.1-0.7l-0.3,0.8
		L269.4,29.4z M269.1,51.1c0,0-0.2-0.2-0.3-0.7c-0.1-0.5,0.2-1.7,0.3-2c0.101-0.2,1.9-1.1,2.3-1.2c0.4-0.1,0.801-0.2,1,0.1
		c0.2,0.3,0.4,0.7,0.5,1.2s-1.4,1.1-2.2,1.4C269.9,50.3,269.1,51.1,269.1,51.1z M271.1,57.3c-0.7-0.9-1.399-3.1-0.7-4.9
		c0.101-0.3,0.5,0.9,0.601,1.3c0.1,0.5,0.2,0.7,0.2,0.7l6.899-2.5c0,0,0-2.5,0.2-3c0.1-0.5,0.4-0.5,0.4-0.3
		c0,0.2,0.199,2.8,0.399,3.6c0.2,0.8,1.5,2.4,1.7,2.9c0.2,0.4,0.5,0.9,0.3,0.9c-0.2,0-1.6-0.4-1.6-0.4l-5.601,2.3
		c0,0,0.5,0.8,0.301,0.9C274,58.9,271.8,58.1,271.1,57.3z M273.6,50.5c0.101,0,0,1.4,1.4,0.8c1.399-0.6,1.3-1.5,1.5-1.6
		c0.3,0,0.7,1.9-1,2.4s-2.3-0.2-2.3-0.7C273.1,51,273.5,50.5,273.6,50.5z M273.6,46.4c0.2-0.1,0.601,0.7,0.8,1.2
		c0.4,0.6,1.101,2,1.2,2.4c0.2,0.4-1.1,1.1-1.3,0.6c-0.3-0.5-0.4-1-0.6-1.8C273.6,48,273.3,46.6,273.6,46.4z M275.5,61.5
		c-1.9,0.5-2.4-0.5-2.7-1c-0.3-0.5,0.3-0.9,1-1.3c0.7-0.4,6-2.4,6.4-2.5c0.399-0.1,1.699-0.3,2-0.5c0.3-0.2-0.2-1.5-0.4-2
		c-0.2-0.4-1-1.6-1-1.6s-0.7,0.2-1-0.3c-0.3-0.5,0.4-0.7,0.4-0.7s-0.2-0.6-0.2-1s0-1.3,0-2.1c0-0.7-0.4-1-0.7-1
		c-0.3,0-2.5,0.5-2.9,0.6c-0.399,0-0.8,0.1-0.899-0.2c-0.101-0.3-0.4-0.6-0.4-0.9c0-0.2,0-0.6,0.101-0.7c0.3-0.2,1.5-0.5,2.3-1
		c0.899-0.2,1.7-0.4,3.1,0.7s0.8,5.5,0.8,5.7c0,0.3,1.101,0.9,1.601,1.5c0.5,0.6,0.899,2.3,0.8,3.9
		C283.704,58.7,277.4,61,275.5,61.5z M306.1,37.6c-1.198,0-1,1-1,1H304.7c0,0-0.801-3,1.8-2.7c2.6,0.5,0.199,3.4,0.199,3.4
		S307.3,37.6,306.1,37.6z M301.4,53.5c-0.102,0-0.102,0.1-0.199,0.3C301.1,54,301,54,300.9,54.3c-0.102,0.3-0.802,0-1.199,0
		c-0.301,0-0.5,0.1-0.5,0.1s0-0.1,0.1-0.3c0.102-0.2,0.9-0.2,1.2-0.2s0.1-0.3-0.2-0.4c-0.3,0-0.6,0-0.898,0
		c-0.302,0.1-0.399,0.4-0.802,0.5c-0.397,0.1-1,0-1.2,0.1c-0.199,0.1-0.6,0.5-0.6,0.6c0,0.1-0.1,0.4-0.4,0.4
		c-0.3,0-0.3-0.2-0.199-0.5c0.1-0.3,0.5-0.8,0.5-1c0-0.2-0.4-0.2-0.7-0.2c-0.301,0-0.601,0.1-0.7,0.2c-0.2,0.1-0.4,0.1-0.5-0.1
		c-0.101-0.2,0.2-0.3,0.5-0.5c0.399-0.2,1.8,0,2.1-0.1c0.3,0,0.3-0.2,0.3-0.2s-0.399-0.2-0.5-0.5c-0.1-0.3,0-0.5,0.301-0.6
		c0,0,0.199,0.1,0.5,0.2c0.1,0.2,0.399,0.1,0.399-0.1c0.101-0.2,0.101-0.2,0.398,0c0.399,0.3,0.102,1,0.399,1.1
		c0.301,0.2,1.5,0.1,1.7,0c0.198-0.2,0.5-0.4,0.3-0.5c-0.199-0.1-1.102-0.2-1.399-0.2c-0.3-0.1-0.5-0.4,0-0.4s2,0,2.102,0.5
		c0.101,0.5-0.2,0.6-0.5,0.6c-0.302,0.1-0.2,0.4,0,0.4c0.198,0,0.5-0.2,0.698-0.2c0.102-0.1,0.302-0.1,0.302,0.1
		c-0.102,0.2-0.102,0.6-0.102,0.9s-0.7,0.3-0.7,0c0-0.4,0.302-0.5,0.302-0.5S301.5,53.5,301.4,53.5z M300.5,40.8c-0.4-0.3-1,0-1.2,0
		s-0.3-0.1-0.3-0.1c0-0.2,0.2-1.1,0.8-1.3c0.602-0.2,2-0.3,2.3,0.7c0.4,1,0,1.9-0.198,2.1c-0.2,0.2-0.899,0.4-1.2,0.4
		S301,41.1,300.5,40.8z M300.4,50c-0.102,0.2-0.899,1.1-1.199,1c-0.301-0.1-0.603-0.2-0.801-0.4c-0.2-0.2-0.4-0.5-0.4-0.7
		c0-0.1,0-1.1,0-1.3c0,0,0.1-0.3,0.399-0.4c0.301,0,1.198,0,1.5,0c0.301,0,0.5,0,0.5,0.2c0,0.2,0,0.7,0,1
		C300.4,49.7,300.5,49.9,300.4,50z M298.2,42.4v0.5H297.6v-0.5h-0.5v0.5h-0.4v-0.1v-0.7h2.5v0.7h-0.4v-0.4H298.2z M298.2,35.5v0.7
		H297.6v-0.6h-0.5v0.6h-0.5v-1h2.601v1h-0.5v-0.7H298.2z M297.8,36.6c0.3,0.1,1,1.1,1,2.2c0.102,1.1-0.5,1.9-1,1.9s-0.9-1.1-1-2
		C296.8,37.9,297.5,36.6,297.8,36.6z M298.9,41.3c0.5,0,0.398,0.3,0,0.3c-0.399,0-1.602,0-2,0c-0.3,0-0.3-0.1-0.3-0.3
		c0-0.1,0.2-0.2,0.3,0C297,41.4,298.4,41.3,298.9,41.3z M299.2,34.7c-0.2,0-2.301,0-2.601,0c-0.3,0-0.2-0.3,0.101-0.3
		c0,0,2.199,0,2.5,0C299.5,34.4,299.4,34.7,299.2,34.7z M296.8,40.7c-0.2,0.2-0.9-0.6-1.4-0.4c-0.5,0.3-0.699,0.9-0.699,1.3
		s-0.101,0.8,0.199,0.9c0.301,0.1-0.1,0.2-0.3,0.1c-0.2-0.1-1.1-1.1-1-3.1c0.101-1.2,0.5-1.2,0.8-1.2c0.601-0.2,1.2-0.2,1.7,0.5
		C296.6,39.5,297,40.5,296.8,40.7z M293.8,43.4c0.4,0,4.7,0,4.9,0c0.1,0,0.199,0.3,0.1,0.4v3.8c0,0-0.898,0-1.3,0
		c-0.3,0-0.3,0-0.3,0.3c0,0.3-0.101,2.5-0.101,2.7c0,0.1-0.1,0.1-0.3,0.3c-0.2,0.2-3,2.2-3.2,2.4c-0.2,0.1-0.3-0.4-0.3-0.6
		c0-0.2,0-8.7,0-8.9C293.3,43.6,293.4,43.4,293.8,43.4z M301.3,51.1c0-0.2,0-2.7,0-3c0-0.3-0.1-0.5-0.398-0.5
		c-0.302,0-1.399-0.1-1.399-0.1s0.2-3.6,0.2-3.8c0-0.2-0.103-0.2-0.103-0.2s5.7,0,6.103,0c0.5,0,0.999,0,0.999,0.4
		c0,0.3-0.602,4.2-0.999,5.2c-0.4,1-1.801,3.9-2.2,3.9C303.1,53.1,301.3,51.3,301.3,51.1z M304.7,40.8v0.7h-0.8v-0.7h-0.5v0.7h-0.5
		v-1l2.698-0.1v1.1h-0.5v-0.7H304.7z M305.4,39.8c-0.399,0-2,0-2.302,0c-0.3,0-0.3-0.6,0-0.6c0,0,1.802,0,2.302-0.1
		C305.9,39.1,305.8,39.8,305.4,39.8z M304.9,35.8c-0.302,0.5-0.699,1.3-0.699,1.7s-0.103,1.2-0.103,1.2H303.7c0,0-0.5-2.1-0.801-2.7
		c-0.302-0.6-0.699-1.2-0.399-2.1s1.1-2.2,1.1-2.2s1.7,1.2,1.802,1.9C305.5,34.3,305.2,35.3,304.9,35.8z M303.1,38.6l-0.698,0.1
		c0,0,0.101-1.2-0.802-1.2c-0.897,0.1-0.3,1.2-0.698,1.2c-0.399,0-1-0.5-1.199-1.2c-0.2-0.7,0.397-1.8,1.699-1.9
		C302.7,35.5,303.1,38.6,303.1,38.6z M302.1,33.2c0,0.1-0.8,1.8-1,1.9c-0.198,0.1,0-1.2-0.6-1.4c-0.6-0.2-1.1,0.3-1.1,0.3h-0.9
		c0.1-0.4,0.7-3.3,2.5-3.5C302.8,30.4,302.1,33.1,302.1,33.2z M298.3,33c0,0.3-0.1,1-0.1,1h-0.8c0,0,0-0.8-0.199-1.3
		c-0.2-0.5-1.101-2.6-0.9-3.5c0.2-1,1.5-2.3,1.7-2.2c0.3,0,1.399,1.3,1.3,2.5C299.3,30.6,298.3,32.7,298.3,33z M296.8,34H296
		c0,0-0.101-0.3-0.3-0.5c-0.301-0.2-0.801,0-1.101,0.3c-0.3,0.2,0.101,2-0.5,1.7c-0.6-0.3-0.7-1.5-0.899-2.4
		c-0.101-0.9,0.5-2.2,1.1-2.4C296.7,29.8,296.9,34,296.8,34z M297.7,56c0,0,1-1,1.8-1.2c0.8-0.2,1.6,0.8,1,1.4
		c-0.7,0.6-7.601,7.3-7.601,7.3s0-0.5,1.801-2.9l-5.2-0.3l0.6-0.8h5.2l0.3-0.5l-4.899-0.2l0.6-0.8h4.9l0.3-0.5l-4.7-0.1l0.8-1.2
		L297.7,56z M298.8,62c-0.2-0.2,0.8-1.2,0.8-1.2s3.5,4.8,3.603,5c0.1,0.2-0.603,0.5-0.9,0.4C302,66.1,299,62.2,298.8,62z
		 M298.6,65.5c-0.6-0.3-1.7-0.5-1.897-0.9c-0.2-0.4,0.6-0.9,1-0.9c0,0,1.199,0.7,1.397,1.2C299.4,65.3,299.3,65.8,298.6,65.5z
		 M286.8,60.1c0.1-0.2,1-2.2,1.8-3.4c0.8-1.3,1.101-1.7,2-1.5c0.7,0.1,0.9,0.5,0.5,1.3c-0.399,0.8-3.399,3.5-3.8,3.7
		C286.9,60.4,286.7,60.3,286.8,60.1z M285.7,54.5c-0.301-0.5-2.301-5.4-2.4-5.7c0-0.3,0-1.4-0.2-1.4c-0.2-0.1-1-1.2-1.399-1.7
		c-0.4-0.6-0.301-1.1-0.2-1.3c0,0,0-0.1,0.1-0.2c0.101-0.1,7.9-0.1,7.9-0.1s0.7-0.4,1.2-0.3c0.5,0,0.3,0.5,0.399,0.7
		c0.101,0.2,0.101,1.2,0.3,0.9c0.2-0.3,0.9-0.3,0.9,0.2s-2.5,6.8-2.5,7c0,0.2-0.4,1-0.4,1.2c0,0.2-1.8,1.1-2.6,1.5
		C286,55.7,286,55,285.7,54.5z M292.3,61.3l-1,0.8c0,0-0.3-0.1-0.8-0.2c-0.5-0.2-1.4-0.4-1.601-0.7c0,0,1.2,0,1.801,0.1
		C291.3,61.3,292.3,61.3,292.3,61.3z M292.7,42.7h-12.3c0,0,0.101-7.2,2.9-10c2.8-2.8,4.5-4.5,9.4-4.9V42.7L292.7,42.7z M281.6,62.9
		c0.601,0.6-0.2,1-0.7,0.6C280.5,63.1,281.3,62.6,281.6,62.9z M284.3,75c-2,0-4-0.299-4-0.299s-0.5-2.4-0.8-3.4
		c-0.3-1,0.3-1.5,0.899-1.299c0.601,0.2,1.301,0.9,1.2,1.299c-0.1,0.4-0.8,1.801-0.8,1.801s0,0.301,0.3,0.5
		c0.3,0.104,0.8,0.301,0.8,0.301s1.5-1.898,3.301-1C287,73.8,286.3,75,284.3,75z M306.699,69.9c-0.602,0-5.399-0.102-7.602-0.5
		c-2.2-0.4-5-1.3-5-1.3l-5.1,2.5l0.7,0.301c0,0,4-1.899,4.3-2.101c0.3-0.2,1.1,0,0.8,0.3c-0.3,0.301-4.1,2.103-4.1,2.103l1.5,0.5
		c0,0,3.3-1.603,3.8-1.901c0.5-0.298,1.399,0.102,0.8,0.4C296.2,70.6,293,72.1,293,72.1l1.1,0.399c0,0,3.8-2,4.3-2.201
		c0.5-0.3,1.198,0,0.698,0.3c-0.5,0.2-4.1,2.199-4.1,2.199l1.5,0.4c0,0,3.899-2,4.6-2.401c0.603-0.399,1,0.2,0.603,0.5
		c-0.4,0.3-4.103,2.3-4.103,2.3s1.2,0.399,2,0.399c0.802,0,0.2,0.601-0.1,0.701c-0.3,0.1-4.101,0-7.5-1.201
		c-3.4-1.199-9.7-3.5-12.2-6.601s-2.3-2.8-2.4-3.5c-0.1-0.4,0.801-0.3,1,0c0.2,0.3,0.601,0.5,0.601,0.5s0.7-0.5,0.899-0.7
		c0.2-0.2,0.601,0.4,0.4,0.6c-0.2,0.2-0.8,0.7-0.8,0.7l0.7,0.5c0,0,1.899-1.1,2.199-1.1c0.301,0,0.9-0.2,1.101-0.4
		c0.2-0.1,1.5-0.8,1.5-0.8l-0.7-0.7l-1.2,0.7c0,0,0.101,0.7-0.3,0.7c-0.4,0.1-0.3-0.6-0.5-0.8c-0.2-0.2-1.2,0-1.2-0.3
		c0-0.3,0.601-0.7,0.9-0.6c0.3,0.1,0.8,0.4,0.8,0.4l0.9-0.6c0,0-0.801-1.6-0.301-2S284,59,284.2,59.3c0.199,0.3,5.199,5.1,9,6.7
		c3.8,1.7,6.1,2.3,7.699,2.5c1.601,0.2,5.8,0.5,6.698,0.2C308.4,68.5,307.3,69.8,306.699,69.9z M308,64.5l-4.601-5.2L303,59.7
		l4.1,5.3c0,0-0.3,0.5-0.6,0.4c-0.3-0.2-4.3-5.6-4.3-5.6l-0.603,0.5l3.802,5.1l-0.802,0.3l-4.3-5.5c0,0,1.2-0.8,4.3-3.8
		c3.102-3,4.7-7,4.802-14.7c0.101-7.7-5-12.3-7.603-14.4c-2.601-2.1-8.101-3.5-15.101-0.6c-7,2.9-8.699,10.8-8.8,15.1
		c0,0.5,0.4,2.7,0,2.8c-0.399,0.1-2.8,0.8-3.1,0.8c-0.3,0-0.3-0.5-0.5-0.4c-0.2,0.1-1.2,0.2-1.5,0.3c-0.3,0.1-0.2,0.6-0.2,0.6
		s-0.3,0.3-1.3,0.4c-0.9,0.1-0.8-0.2-0.8-0.6c0,0-0.5-3.7,0.2-6c0.399-2.3,1.199-5.9,3.5-11c1.6-3.6,5.899-7.7,5.899-7.7
		s0.7,0.8,1.5,0c1.9-1.7,7.7-3.8,12.601-3.7c6.6,0,10.898,3.3,11.2,3.3c0.301,0,0.601-0.2,0.698-0.4c0,0,5.7,3.1,8.102,9.1
		C320.4,45,315.699,53,314.1,57C312.5,61.1,308,64.5,308,64.5z"/>
	<polygon points="343.699,63.2 342.3,61.5 341.3,62.7 342.9,64.6 	"/>
	<path d="M332.8,58.2c-0.5-1-2.3-1.9-2.7-2c-2.8-0.6-3,0.9-3,1.5c0,0.6,1.2,3.5,3.603,3.7c2.397,0.1,2.5-0.8,2.601-1.2
		C333.4,59.8,333.3,59.2,332.8,58.2z M330.699,60.8c-0.5-0.1-0.8-0.6-0.899-1.3c-0.2-0.7-0.3-1.7-0.3-2.1s0.1-0.8,0.5-0.7
		c0.6,0.1,1,0.8,1.1,1.2c0.103,0.4,0.2,1.9,0.303,2.4C331.5,60.8,331.199,60.9,330.699,60.8z"/>
	<path d="M309.6,59c-0.3-0.2-2.6-2.1-2.8-2.3c-0.2-0.2,0-0.8,0-0.8l-0.2-0.1l-2.396,2.8l0.8,0.9l0.1-0.1c0,0-0.1-0.7,0-0.9
		c0-0.2,1.2-1,1.2-1l1,1c0,0-0.2,0.4-0.5,0.7c-0.2,0.3-0.8-0.1-0.8-0.1l-0.2,0.2l1.2,1l0.101-0.2c0,0-0.198-0.3,0-0.5
		c0.102-0.2,0.699-0.6,0.699-0.6l1.301,0.9c0,0,0,0-0.198,0.3c-0.2,0.3-1,0.9-1.302,1.1c-0.301,0.2-0.601-0.1-0.601-0.1l-0.2,0.2
		l1,0.8l2.801-3l-0.198-0.1C310.4,59.1,309.9,59.3,309.6,59z"/>
	<path d="M296.1,23.2c0,0,0.3-0.5,0.5-0.9c0.2-0.4,0.2-0.8,0.2-2.1c0.1-1.3-1.1-1.9-1.7-1.9s-1.5,0.4-1.6,1.1c0,0.4-0.3,2.2-0.2,2.9
		c0.1,0.7,1,1.4,1.3,1.3c0.4,0,0.9-0.1,0.9-0.1s0,0,0.1,0.2c0.101,0.2,0.8,0.8,1.3,0.8c0.4,0,1-0.2,1-0.2s-0.5-0.1-0.9-0.3
		S296.1,23.2,296.1,23.2z M295.3,22.3c-0.5,0.2,0,0.8,0,0.8s-1.2,0.6-1.3-0.7c-0.101-1.3,0.1-2,0.1-2.5
		c0.101-0.5,0.601-0.9,1.101-0.7c0.6,0,0.899,0.8,0.899,1.6c0,0.8-0.3,1.8-0.3,1.8S295.6,22.2,295.3,22.3z"/>
	<path d="M302.6,21.2l0.2-0.3c0,0-0.398-0.1-0.7-0.3c-0.3-0.3-1-0.5-1-0.5l-0.1,0.2c0,0,0.3,0.3,0.399,0.3
		c0.101,0,0.198,0.3,0.101,0.5c0,0.2-1,2-1,2.2c0,0.1-0.3,0.4-0.8,0.6c-0.4,0.2-1.301-0.4-1.301-0.8s0.801-2.6,0.898-2.9
		c0.102-0.3,0.3-0.2,0.3-0.2l0.2-0.4l-1.398-0.5l-0.102,0.3c0,0,0.5,0.2,0.4,0.4c-0.103,0.2-0.4,1.6-0.7,2.7s0.398,1.6,0.898,1.9
		c0.5,0.3,1.5,0.1,1.699-0.2c0.2-0.3,1.301-2.7,1.4-3C302.1,21,302.6,21.2,302.6,21.2z"/>
	<path d="M291.8,21.9c0,0.3,0.8,0.3,0.8-0.2C292.5,21.3,291.7,21.2,291.8,21.9z"/>
	<path d="M288,23.8c-0.101-0.2-1.3-3.1-1.5-3.4c-0.101-0.3,0.2-0.5,0.2-0.5l-0.101-0.3l-1.1,0.5v0.4c0,0,0.399,0,0.5,0.1
		c0.1,0.1,1.3,3.2,1.399,3.3c0.101,0.2-0.199,0.5-0.199,0.5l0.1,0.3l1.2-0.6v-0.2C288.5,23.9,288.1,24,288,23.8z"/>
	<path d="M282.7,21.2c-0.601,0.4-1.601,2-0.5,3.3c1.1,1.3,2.3,1.8,3.199,1.2c0.9-0.5,1.301-2.3,0.2-3.8
		C284.5,20.6,283.2,20.8,282.7,21.2z M285.1,25.2c-0.399,0.2-1.3,0.2-2.1-0.9c-0.9-1.1-0.3-2.1,0.1-2.4c0.5-0.4,1.2,0,1.9,1.2
		C285.7,24.2,285.5,24.9,285.1,25.2z"/>
	<path d="M292.1,19.6l-0.2-1.2c0,0-1.699,0.2-2.3,0.4c-0.7,0.3-2.399,0.7-2.399,0.7l0.5,1.3l0.3-0.1c0,0,0-0.8,0.2-0.9
		c0.199-0.1,1-0.3,1-0.2c0.1,0.1,0.6,2.8,0.699,3.1c0.1,0.3,0.1,0.5-0.1,0.6c-0.2,0.1-0.4,0.2-0.4,0.2l0.101,0.3
		c0,0,0.7-0.1,0.899-0.2c0.301-0.1,0.9-0.1,0.9-0.1v-0.3c0,0-0.4,0-0.5-0.3c-0.1-0.3-0.6-3.1-0.6-3.3c0-0.2,0.199-0.3,0.5-0.4
		c0.3,0,0.699-0.2,0.899-0.1c0.101,0.1,0.3,0.6,0.3,0.6L292.1,19.6z"/>
	<path d="M302.7,25.3c-0.103,0,0.1-0.3,0.1-0.5c0-0.2,1.3-2.6,1.3-2.8c0.103-0.2,0.302-0.2,0.5-0.2c0.2,0,0.302,0.1,0.302,0.1
		l0.1-0.3l-1.7-0.7l-0.1,0.2c0,0,0.199,0.2,0.3,0.2c0.1,0.1,0,0.3,0,0.5c0,0.2-1.3,2.7-1.4,3c-0.1,0.3-0.198,0.2-0.397,0.2
		c-0.2,0-0.4-0.2-0.4-0.2l-0.2,0.2c0,0,0.7,0.3,0.9,0.5c0.199,0.2,0.7,0.4,0.7,0.4l0.199-0.3C302.9,25.6,302.8,25.3,302.7,25.3z"/>
	<path d="M310.3,55.3c-0.5,0.3-1.2,0.6-1.5,0.7c-0.3,0-1.2-0.3-0.7-0.8s1-0.8,1.399-0.6c0.399,0.2,0.7,0.3,0.7,0.3l0.2-0.3
		l-1.803-1.2l-0.197,0.2l0.198,0.4c0,0-0.897,0.4-1,0.7c-0.1,0.3-0.5,1.1,0.303,1.6c0.897,0.5,1.697,0.2,2.197-0.1
		c0.5-0.2,1.303-0.5,1.5-0.1c0.303,0.4,0,0.9-0.3,1.2c-0.3,0.3-0.7,0.4-0.897,0.4c-0.2,0-0.7-0.1-0.7-0.1l-0.3,0.2L311,59l0.199-0.2
		l-0.3-0.5c0,0,1.5-0.9,1.5-1.3c0-0.3-0.103-1.2-0.5-1.5C311.4,55.2,310.8,55,310.3,55.3z"/>
	<path d="M310,37.4l1.399-0.3l0.101-0.3c0,0-1.2,0-1.301-0.2c-0.103-0.2-0.103-0.5-0.199-0.7c0-0.2,0-0.4,0.199-0.4
		c0.2,0,3-1.1,3.301-1.2c0.3-0.1,0.3,0.1,0.3,0.1h0.399l-0.5-1.5l-0.3,0.1c0,0,0.197,0.6-0.103,0.7c-0.301,0.1-2.7,0.9-3.2,1.1
		c-0.5,0.2-0.697-0.5-0.697-0.5l-0.303,0.2c0,0,0.399,1.1,0.5,1.5C309.699,36.3,310,37.4,310,37.4z"/>
	<path d="M314.1,53.5c0,0-0.1,0.3-0.397,0.3s-0.5,0-0.5,0l-2.8-1.3L315,51l0.5-0.9l-0.2-0.1c0,0-0.101,0.5-0.397,0.5
		c-0.303,0-3.603-0.8-3.899-0.9c-0.2,0-0.301-0.5-0.301-0.5l-0.3-0.2l-0.303,0.4l-0.397,0.9l0.301,0.1c0,0,0.199-0.5,0.399-0.3
		c0.3,0.2,2.697,0.8,2.697,0.8l-4,1.4l-0.197,0.1c0,0,3.897,1.8,4.101,2c0.199,0.2,0.3,0.8,0.3,0.8l0.2,0.1l0.8-1.7H314.1z"/>
	<path d="M303.8,23.9c-0.3,0.3,0.102,1,0.602,0.5C305,24,304.2,23.5,303.8,23.9z"/>
	<path d="M307.199,29.6c0.2-0.2,2.601-2.4,2.7-2.5c0.101,0,0.397,0.3,0.397,0.3l0.199-0.2l-0.699-1.1l-4,1l1.103-3.7l-1.199-1.2
		l-0.2,0.3c0,0,0.3,0.3,0.3,0.5c0.102,0.1,0,0.4-0.1,0.6c-0.103,0.2-1.4,2.4-1.603,2.6c-0.198,0.2-0.3,0.2-0.5,0.1
		c-0.198-0.1-0.3-0.1-0.3-0.1l-0.1,0.2l1,1l0.199-0.2c0,0,0-0.2,0.101-0.5c0.1-0.3,1.5-2.7,1.5-2.9c0.1-0.2,0.3-0.2,0.3-0.2
		l-1.398,4.7l4.398-1.2c0,0-2.2,1.8-2.397,1.9c-0.2,0.2-0.399,0.2-0.5,0.1c-0.102-0.1-0.199-0.3-0.199-0.3L306,29l0.8,1.3l0.3-0.3
		C307.1,30,307,29.7,307.199,29.6z"/>
	<path d="M309.3,33.3c0.103-0.2,3.399-3.4,3.399-3.4l-0.103-0.2c0,0-4.3,0.7-4.5,0.8c-0.197,0-0.601-0.2-0.601-0.2l-0.399,0.4
		l0.803,1.1l0.197-0.1c0,0-0.101-0.3-0.197-0.5c-0.103-0.2,0-0.2,0.197-0.3c0.303-0.1,0.399-0.1,0.5-0.1c0.103,0,0.2,0.2,0.2,0.2
		s0.399,0.9,0.399,1c0,0.2,0,0.4,0,0.4s-0.2,0.3-0.399,0.3c-0.2,0.1-0.301-0.5-0.301-0.5l-0.199,0.1L309,34l0.3-0.2
		C309.3,33.8,309.199,33.5,309.3,33.3z M311.699,30.4L310,32l-0.5-1.1L311.699,30.4z"/>
	<path d="M303.9,49.2c0.101-0.4,0.801-0.7,1-1.3c0.198-0.6,0.101-1.3,0.5-1.9c0.301-0.6,0.698-1.2,0.698-1.5
		c0-0.4-0.198-0.1-0.397,0.3c-0.2,0.4-0.603,0.8-0.801,1.3c-0.199,0.4-0.302,1.3-0.399,1.6c-0.101,0.3-0.5,0.5-0.5,0.5
		s0.2-1.5,0.2-1.8c0-0.3,0.1-0.6,0.6-1c0.4-0.4,0.7-0.6,0.5-0.8c-0.2-0.3-0.2-0.5-0.2-0.5l-0.5-0.5l-0.3,0.5h-2
		c-0.1,0.4,0.2,0.6,0.5,0.8c0.3,0.2-0.1,0.4-0.5,0.1c-0.3-0.2-0.398-0.3-0.898-0.3c-0.5,0.1-0.602,0.3-0.301,0.4s0.602,0,0.699,0.3
		c0.102,0.3-0.898,0.2-1.199,0.2s-0.601,0.1-0.398,0.3c0.3,0.3,0.1,0.2,0.6,0.2c0.4,0,0.9,0,0.9,0s0.8,0.1,0.8,0.4c0,0.4,0,2.5,0,3
		s0.5,1,0.5,1s-0.101-0.6,0.3-0.8C303.7,49.4,303.9,49.6,303.9,49.2z"/>
	<path d="M295.5,48.3c0,0.2-0.3,0.3-0.5,0.3s0,0.4,0.2,0.8c0.199,0.5,0,0.9,0,1.1s0.899-0.3,1-0.4c0.1-0.1,0.3-0.9,0.199-1.2
		c-0.1-0.3,0.2-1.3,0.301-1.5c0.199-0.3,0.699-0.3,0.8-0.6c0-0.2,0-1,0-1.3c0-0.2,0.6-0.5,0.3-0.7c-0.3-0.2-0.7,0.3-0.7,0.5
		c0,0.2,0,0.9,0,1.2s-0.6,0.5-0.8,0.5c-0.2,0,0.1-0.4,0.2-0.6c0.1-0.2,0.2-0.3,0.2-0.6c0-0.3,0.1-0.7,0.1-1c0-0.3-0.4-0.2-0.7-0.2
		c-0.3,0-0.7,0-1.1,0.2c-0.4,0.2-0.2,1.8-0.101,2.3C295,47.6,295.5,48.1,295.5,48.3z"/>
	<path d="M278.1,52.6c0,0-4.399,1.5-5.1,1.8c-0.7,0.3-1.5,0.6-1.5,0.6s0.5,0.3,0.8,0.3c0.3,0,6-1.9,6-1.9L278.1,52.6z"/>
	<path d="M278.6,54.3c0,0-2.399,0.8-3,1.1c-0.899,0.4-2.8,1.3-2.8,1.3c0.2,0.2,0.5,0.3,0.9,0.2c0.3-0.1,5.199-2.1,5.199-2.1
		L278.6,54.3z"/>
</g>
<path d="M174,70.1h-48.6v-0.8l7-3.9V17.7l-7-4v-0.8h20l0,0h27l1,14.9l-0.899,0.3c0,0-7.5-7.8-9.3-9.4c-1.7-1.6-3-2-4.101-2.4
	c-2.3-0.6-4.8-0.6-4.8-0.6l-8.6-0.3v24.2c0,0,9-0.1,10-0.3c1.399-0.2,1.899-0.2,3.8-2.4c1.5-1.8,4-5,4-5h1V51h-1
	c0,0-4.7-6.9-5.101-7.1c-0.399-0.2-1.1-1.3-3.6-1.3s-9.1-0.2-9.1-0.2v24.7c0,0,5.1,0.1,9.3-0.3c4.1-0.4,6.399-0.4,9.1-2.7
	c2.7-2.3,9.8-10.6,9.8-10.6L175,54L174,70.1z"/>
<path d="M609,54l-1.101-0.4c0,0-7.103,8.3-9.803,10.6c-2.697,2.3-5,2.4-9.101,2.7c-4.102,0.4-9.3,0.3-9.3,0.3V42.5
	c0,0,6.601,0.2,9.101,0.2s3.3,1.1,3.603,1.3c0.397,0.2,5.101,7.1,5.101,7.1h1v-19h-1c0,0-2.4,3.2-4,5c-1.9,2.2-2.4,2.2-3.801,2.4
	c-1,0.1-10,0.3-10,0.3V15.6l8.601,0.3c0,0,2.5,0,4.8,0.6c1.103,0.4,2.4,0.8,4.103,2.4s9.3,9.4,9.3,9.4l0.9-0.3l-1-14.9h-27l0,0h-20
	v0.8l7,4v47.7l-7,3.9v0.8H608L609,54z"/>
<polygon points="520.4,52 537.9,12.9 556.9,12.9 556.9,13.7 550,17.7 550,65.2 556.9,69.2 556.9,70 529.8,70 529.8,69.3 536.8,65.3 
	536.8,24.7 516.3,69.3 513.8,69.3 491.9,23.7 491.9,65.2 498.9,69.2 498.9,70 480.6,70 480.6,69.3 487.699,65.3 487.699,17.6 
	480.6,13.6 480.6,12.9 501.3,12.9 "/>
<path d="M647.6,13.7l1.103,14.1l-0.899,0.2c0,0-9.801-10.6-10.897-11.5c-0.5-0.4-5.2-3.7-10.103-0.3c0,0-4.801,3.3-1.7,9.3
	c3.103,6.1,12.2,10.3,14.603,11.7c2.301,1.4,14,7.1,12.5,18.7c-1.399,10.9-11.103,14-15.199,14.8c-8.601,1.6-22-2-22-2l-1-14.8
	l1.1-0.1c0,0,9.802,11.7,13.603,13.1c3.8,1.4,9.101,2,12.3-2.1c3.2-4,0.5-9.7-2.601-11.9c-4.399-3-10.802-6.4-15.302-9.4
	c-5-3.3-8.198-8.2-8.897-13.7c-0.899-7.7,3.601-14,9.5-16.3c5.397-2.2,9.8-1.7,13.8-1.4C641.5,12.3,647.6,13.7,647.6,13.7z"/>
<g>
	<path d="M40.374,101.923c-1.824-8.912-7.086-12.141-12.347-12.141h-0.21v24.207c0,21.325,0.141,22.238,1.263,23.43
		c0.912,0.914,2.246,1.334,4.701,1.404v1.473H8.173v-1.473c2.456-0.07,3.789-0.49,4.701-1.404c1.122-1.19,1.262-2.104,1.262-23.43
		V89.783h-0.209c-5.262,0-10.524,3.229-12.348,12.141H0.106V87.33h41.742v14.594H40.374L40.374,101.923z"/>
	<path d="M72.291,140.296v-1.473c2.246-0.07,3.017-0.562,3.648-1.191c1.263-1.264,1.402-2.455,1.402-22.59H62.679
		c0,20.135,0.14,21.326,1.403,22.59c0.631,0.631,1.402,1.123,3.648,1.191v1.473H43.948v-1.473c2.245-0.07,3.017-0.562,3.648-1.191
		c1.262-1.264,1.403-2.525,1.403-23.854s-0.141-22.521-1.403-23.782c-0.632-0.631-1.404-1.123-3.648-1.19V87.33h23.783v1.476
		c-2.246,0.067-3.017,0.562-3.648,1.19c-1.193,1.192-1.403,2.316-1.403,21.608h14.662c0-19.292-0.209-20.415-1.402-21.608
		c-0.632-0.631-1.403-1.123-3.648-1.19V87.33h23.783v1.476c-2.246,0.067-3.017,0.562-3.648,1.19
		c-1.263,1.264-1.403,2.455-1.403,23.782c0,21.328,0.141,22.591,1.403,23.854c0.631,0.631,1.402,1.123,3.648,1.191v1.473H72.291z"/>
	<path d="M137.39,140.296H98.874v-1.473c2.246-0.07,3.017-0.562,3.648-1.191c1.262-1.264,1.403-2.525,1.403-23.854
		s-0.141-22.521-1.403-23.782c-0.631-0.631-1.403-1.123-3.648-1.19V87.33h37.813l0.211,14.594h-1.474
		c-1.543-7.154-4.7-11.785-12.067-11.785h-5.752v21.468h2.736c6.174,0,9.19-1.544,10.032-7.438h1.473v18.873h-1.473
		c-0.842-5.822-3.859-7.998-10.032-7.998h-2.736c0,0,0.069,11.365,0.069,13.328c0,6.313,1.123,9.051,7.366,9.051
		c6.665,0,10.033-4.42,11.717-12.137h1.474L137.39,140.296z"/>
	<path d="M170.569,141c-5.191,0-9.751-1.824-11.787-1.824c-1.052,0-1.964,0.351-3.087,1.121h-1.262v-15.014h1.473
		c1.052,8.141,5.823,12.91,13.751,12.91c6.594,0,8.699-4.139,8.699-7.787c0-12.277-24.204-11.154-24.204-27.642
		c0-8.21,4.841-16.138,16.837-16.138c4.42,0,8.84,1.611,10.663,1.611c1.263,0,1.964-0.209,2.667-0.908h1.192v14.594h-1.474
		c-1.474-5.687-4.981-12.489-13.119-12.489c-5.332,0-7.717,3.017-7.717,6.313c0,10.875,25.747,10.174,25.747,28.692
		C188.949,133.984,181.303,141,170.569,141z"/>
	<path d="M233.355,96.73v22.521c0,12.836-4.631,21.748-19.153,21.748c-13.751,0-19.503-7.86-19.503-16.487V105.5
		c0-10.732-0.491-14.594-1.403-15.504c-0.631-0.633-1.404-1.125-3.648-1.193V87.33h23.783v1.475
		c-2.245,0.068-3.017,0.562-3.648,1.191c-0.982,0.981-1.404,4.7-1.404,15.994v20.697c0,6.805,3.578,10.031,9.611,10.031
		c7.437,0,11.366-5.613,11.366-17.118V96.729c0-5.61-0.561-7.226-5.542-7.927v-1.475h15.083v1.475
		C233.915,89.503,233.355,91.119,233.355,96.73z"/>
	<path d="M284.282,96.73v43.566h-7.367l-27.29-37.674v28.272c0,5.608,0.561,7.228,5.542,7.929v1.473h-15.083v-1.473
		c4.98-0.703,5.542-2.316,5.542-7.929v-17.118c0-21.328-0.141-22.521-1.404-23.781c-0.631-0.634-1.403-1.125-3.648-1.193V87.33
		h17.398l22.31,31.289V96.73c0-5.611-0.561-7.227-5.542-7.928V87.33h15.084v1.475C284.843,89.503,284.282,91.119,284.282,96.73z"/>
	<path d="M317.39,140.296h-24.765v-1.473c2.245-0.07,3.017-0.562,3.648-1.191c1.263-1.264,1.403-2.525,1.403-23.854
		s-0.141-22.521-1.403-23.782c-0.631-0.631-1.402-1.123-3.648-1.19V87.33h23.572c16.484,0,25.537,9.754,25.537,26.521
		C341.735,128.792,336.403,140.296,317.39,140.296z M314.444,90.136h-3.087v38.865c0,5.261,0.91,8.418,6.943,8.418
		c6.945,0,9.19-8.908,9.19-23.782C327.492,100.589,324.335,90.136,314.444,90.136z"/>
	<path d="M363.758,140.296v-1.473c4.279-0.424,6.454-1.404,6.454-3.857c0-0.911-0.701-3.577-3.509-11.717h-13.61
		c-2.104,6.523-3.087,10.312-3.087,11.084c0,2.809,1.754,4.422,4.91,4.422v1.541h-17.047v-1.473
		c5.262-1.054,6.243-1.967,9.05-10.314l13.68-41.18h9.191l15.153,43.987c1.754,5.052,2.807,7.154,6.523,7.509v1.473L363.758,140.296
		L363.758,140.296z M359.688,102.694l-5.472,17.118h11.365L359.688,102.694z"/>
	<path d="M423.035,97.433l-9.121,19.225c0,18.59,0.211,19.781,1.404,20.977c0.631,0.632,1.611,1.123,4.561,1.191v1.473H394.27
		v-1.473c3.02-0.07,3.932-0.562,4.562-1.191c1.192-1.192,1.403-2.387,1.403-20.977l-9.541-18.384
		c-4.562-8.839-4.91-9.049-8.979-9.472V87.33h25.045v1.475c-3.158,0.142-4.421,0.912-4.421,2.808c0,0.843,0.354,1.825,2.525,6.175
		l7.087,14.24l5.963-12.559c1.895-3.997,2.945-6.385,2.945-7.786c0-1.476-0.911-2.736-3.93-2.876V87.33h14.452v1.477
		C427.175,89.365,426.543,90.136,423.035,97.433z"/>
	<path d="M482.311,101.923c-1.822-8.912-7.086-12.141-12.348-12.141h-0.21v24.207c0,21.325,0.142,22.238,1.263,23.43
		c0.912,0.914,2.245,1.334,4.701,1.404v1.473H450.11v-1.473c2.457-0.07,3.79-0.49,4.7-1.404c1.122-1.19,1.263-2.104,1.263-23.43
		V89.783h-0.209c-5.264,0-10.523,3.229-12.35,12.141h-1.474V87.33h41.744v14.594H482.311L482.311,101.923z"/>
	<path d="M485.885,140.296v-1.473c2.244-0.07,3.018-0.562,3.647-1.191c1.263-1.264,1.403-2.525,1.403-23.854
		s-0.143-22.521-1.403-23.782c-0.632-0.631-1.403-1.123-3.647-1.19V87.33h23.782v1.476c-2.245,0.067-3.017,0.562-3.647,1.19
		c-1.264,1.264-1.401,2.455-1.401,23.782c0,21.328,0.14,22.591,1.401,23.854c0.633,0.631,1.402,1.123,3.647,1.191v1.473H485.885z"/>
	<path d="M548.461,140.296v-1.473c2.244-0.07,3.018-0.562,3.648-1.191c1.263-1.264,1.4-2.525,1.4-23.854V99.537l-13.891,40.832
		h-4.353l-14.312-40.832v31.36c0,5.61,0.562,7.226,5.543,7.927v1.473h-14.031v-1.473c4.42-0.632,5.051-2.314,5.051-7.928v-17.118
		c0-21.327-0.14-22.521-1.4-23.782c-0.632-0.631-1.403-1.123-3.648-1.19V87.33h19.714l10.806,32.201l11.153-32.201h18.102v1.476
		c-2.244,0.067-3.019,0.562-3.648,1.19c-1.262,1.264-1.401,2.455-1.401,23.782c0,21.328,0.142,22.591,1.401,23.854
		c0.632,0.631,1.404,1.123,3.648,1.191v1.473H548.461z"/>
	<path d="M613.561,140.296h-38.516v-1.473c2.244-0.07,3.018-0.562,3.648-1.191c1.262-1.264,1.401-2.525,1.401-23.854
		s-0.142-22.521-1.401-23.782c-0.634-0.631-1.404-1.123-3.648-1.19V87.33h37.813l0.21,14.594h-1.477
		c-1.543-7.154-4.7-11.785-12.063-11.785h-5.753v21.468h2.734c6.175,0,9.19-1.544,10.032-7.438h1.473v18.873h-1.473
		c-0.842-5.822-3.857-7.998-10.032-7.998h-2.734c0,0,0.069,11.365,0.069,13.328c0,6.313,1.121,9.051,7.365,9.051
		c6.664,0,10.032-4.42,11.715-12.137h1.477L613.561,140.296z"/>
	<path d="M633.62,141c-5.19,0-9.751-1.824-11.786-1.824c-1.052,0-1.964,0.351-3.088,1.121h-1.261l0.842-15.014h1.473
		c0.562,7.998,4.981,12.91,12.909,12.91c6.595,0,8.699-4.139,8.699-7.787c0-12.277-24.204-11.154-24.204-27.642
		c0-8.21,4.842-16.138,16.837-16.138c4.421,0,8.842,1.611,10.665,1.611c1.262,0,1.964-0.209,2.665-0.908h1.189v14.594h-1.473
		c-1.473-5.687-4.981-12.489-13.118-12.489c-5.332,0-7.718,3.017-7.718,6.313c0,10.875,25.746,10.174,25.746,28.692
		C652.001,133.984,644.355,141,633.62,141z"/>
</g>
</svg>
